<svg width="24" height="24" viewBox="0 0 24 24" fill="none" xmlns="http://www.w3.org/2000/svg">
<g clip-path="url(#clip0_1343_1980)">
<path d="M17.4719 14.382C17.1749 14.233 15.7139 13.515 15.4419 13.415C15.1689 13.316 14.9709 13.267 14.7719 13.565C14.5749 13.862 14.0049 14.531 13.8319 14.729C13.6589 14.928 13.4849 14.952 13.1879 14.804C12.8909 14.654 11.9329 14.341 10.7979 13.329C9.91488 12.541 9.31789 11.568 9.14489 11.27C8.97188 10.973 9.12688 10.812 9.27488 10.664C9.40888 10.531 9.57288 10.317 9.72088 10.144C9.86988 9.97004 9.91888 9.84604 10.0189 9.64704C10.1179 9.44904 10.0689 9.27604 9.99389 9.12704C9.91889 8.97804 9.32488 7.51504 9.07788 6.92004C8.83589 6.34104 8.59089 6.42004 8.40889 6.41004C8.23588 6.40204 8.03788 6.40004 7.83888 6.40004C7.64088 6.40004 7.31888 6.47404 7.04688 6.77204C6.77488 7.06904 6.00688 7.78804 6.00688 9.25104C6.00688 10.713 7.07188 12.126 7.21988 12.325C7.36888 12.523 9.31588 15.525 12.2969 16.812C13.0059 17.118 13.5589 17.301 13.9909 17.437C14.7029 17.664 15.3509 17.632 15.8619 17.555C16.4329 17.47 17.6199 16.836 17.8679 16.142C18.1159 15.448 18.1159 14.853 18.0409 14.729C17.9669 14.605 17.7699 14.531 17.4719 14.382ZM12.0499 21.785H12.0459C10.2757 21.7852 8.53796 21.3092 7.01488 20.407L6.65388 20.193L2.91288 21.175L3.91088 17.527L3.67588 17.153C2.68632 15.5773 2.16283 13.7537 2.16588 11.893C2.16688 6.44304 6.60188 2.00904 12.0539 2.00904C14.6939 2.00904 17.1759 3.03904 19.0419 4.90704C19.9626 5.82366 20.6923 6.91377 21.1889 8.11428C21.6855 9.3148 21.939 10.6019 21.9349 11.901C21.9319 17.351 17.4979 21.785 12.0499 21.785ZM20.4629 3.48804C19.3611 2.37896 18.0501 1.49958 16.606 0.900841C15.1618 0.302105 13.6132 -0.00407625 12.0499 4.09775e-05C5.49488 4.09775e-05 0.159885 5.33504 0.156885 11.892C0.156885 13.988 0.703885 16.034 1.74488 17.837L0.0568848 24L6.36188 22.346C8.10548 23.296 10.0593 23.7938 12.0449 23.794H12.0499C18.6039 23.794 23.9399 18.459 23.9429 11.901C23.9477 10.3383 23.6426 8.79014 23.0453 7.34607C22.448 5.90201 21.5702 4.59071 20.4629 3.48804Z" fill="#9CA3AF"/>
</g>
<defs>
<clipPath id="clip0_1343_1980">
<rect width="24" height="24" fill="white"/>
</clipPath>
</defs>
</svg>
