<svg width="20" height="21" viewBox="0 0 20 21" fill="none" xmlns="http://www.w3.org/2000/svg">
<path fill-rule="evenodd" clip-rule="evenodd" d="M12.293 6.02081C12.4805 5.83334 12.7348 5.72803 13 5.72803C13.2652 5.72803 13.5195 5.83334 13.707 6.02081L17.707 10.0208C17.8945 10.2083 17.9998 10.4626 17.9998 10.7278C17.9998 10.993 17.8945 11.2473 17.707 11.4348L13.707 15.4348C13.5184 15.617 13.2658 15.7178 13.0036 15.7155C12.7414 15.7132 12.4906 15.608 12.3052 15.4226C12.1198 15.2372 12.0146 14.9864 12.0123 14.7242C12.01 14.462 12.1108 14.2094 12.293 14.0208L14.586 11.7278H3C2.73478 11.7278 2.48043 11.6225 2.29289 11.4349C2.10536 11.2474 2 10.993 2 10.7278C2 10.4626 2.10536 10.2082 2.29289 10.0207C2.48043 9.83317 2.73478 9.72781 3 9.72781H14.586L12.293 7.43481C12.1055 7.24729 12.0002 6.99298 12.0002 6.72781C12.0002 6.46265 12.1055 6.20834 12.293 6.02081Z" fill="white"/>
</svg>
