<svg width="18" height="22" viewBox="0 0 18 22" fill="none" xmlns="http://www.w3.org/2000/svg">
<path fill-rule="evenodd" clip-rule="evenodd" d="M2.6362 2.63601C4.32401 0.948202 6.61317 0 9.0001 0C11.387 0 13.6762 0.948202 15.364 2.63601C17.0518 4.32382 18 6.61298 18 8.9999C18 11.3868 17.0518 13.676 15.364 15.3638L9.0001 21.7277L2.6362 15.3638C1.80043 14.5281 1.13745 13.536 0.68513 12.4441C0.232808 11.3521 0 10.1818 0 8.9999C0 7.818 0.232808 6.64768 0.68513 5.55575C1.13745 4.46383 1.80043 3.4717 2.6362 2.63601ZM9.0001 11.5712C9.68204 11.5712 10.3361 11.3003 10.8183 10.8181C11.3005 10.3359 11.5714 9.68185 11.5714 8.9999C11.5714 8.31796 11.3005 7.66395 10.8183 7.18174C10.3361 6.69954 9.68204 6.42863 9.0001 6.42863C8.31815 6.42863 7.66414 6.69954 7.18193 7.18174C6.69973 7.66395 6.42882 8.31796 6.42882 8.9999C6.42882 9.68185 6.69973 10.3359 7.18193 10.8181C7.66414 11.3003 8.31815 11.5712 9.0001 11.5712Z" fill="white"/>
</svg>
