<svg width="18" height="19" viewBox="0 0 18 19" fill="none" xmlns="http://www.w3.org/2000/svg">
<path fill-rule="evenodd" clip-rule="evenodd" d="M9 18.2277C11.3869 18.2277 13.6761 17.2794 15.364 15.5916C17.0518 13.9038 18 11.6146 18 9.22766C18 6.84071 17.0518 4.55153 15.364 2.8637C13.6761 1.17587 11.3869 0.227661 9 0.227661C6.61305 0.227661 4.32387 1.17587 2.63604 2.8637C0.948212 4.55153 0 6.84071 0 9.22766C0 11.6146 0.948212 13.9038 2.63604 15.5916C4.32387 17.2794 6.61305 18.2277 9 18.2277ZM10.125 4.72766C10.125 4.42929 10.0065 4.14314 9.7955 3.93217C9.58452 3.72119 9.29837 3.60266 9 3.60266C8.70163 3.60266 8.41548 3.72119 8.2045 3.93217C7.99353 4.14314 7.875 4.42929 7.875 4.72766V9.22766C7.87506 9.526 7.99363 9.8121 8.20463 10.023L11.3861 13.2057C11.4906 13.3102 11.6147 13.3931 11.7513 13.4497C11.8879 13.5062 12.0342 13.5353 12.1821 13.5353C12.3299 13.5353 12.4763 13.5062 12.6128 13.4497C12.7494 13.3931 12.8735 13.3102 12.978 13.2057C13.0825 13.1011 13.1654 12.977 13.222 12.8405C13.2786 12.7039 13.3077 12.5575 13.3077 12.4097C13.3077 12.2619 13.2786 12.1155 13.222 11.979C13.1654 11.8424 13.0825 11.7183 12.978 11.6138L10.125 8.76191V4.72766Z" fill="white"/>
</svg>
