<svg width="16" height="14" viewBox="0 0 16 14" fill="none" xmlns="http://www.w3.org/2000/svg">
<path fill-rule="evenodd" clip-rule="evenodd" d="M5.83986 1.02C6.60486 -0.34 8.56186 -0.34 9.32586 1.02L14.9059 10.94C15.6559 12.274 14.6929 13.92 13.1639 13.92H2.00286C0.472856 13.92 -0.490144 12.274 0.259856 10.94L5.83986 1.02ZM8.58286 10.921C8.58286 11.1862 8.4775 11.4406 8.28996 11.6281C8.10243 11.8156 7.84807 11.921 7.58286 11.921C7.31764 11.921 7.06329 11.8156 6.87575 11.6281C6.68821 11.4406 6.58286 11.1862 6.58286 10.921C6.58286 10.6558 6.68821 10.4014 6.87575 10.2139C7.06329 10.0264 7.31764 9.921 7.58286 9.921C7.84807 9.921 8.10243 10.0264 8.28996 10.2139C8.4775 10.4014 8.58286 10.6558 8.58286 10.921ZM7.58286 2.921C7.31764 2.921 7.06329 3.02636 6.87575 3.21389C6.68821 3.40143 6.58286 3.65578 6.58286 3.921V6.921C6.58286 7.18622 6.68821 7.44057 6.87575 7.62811C7.06329 7.81564 7.31764 7.921 7.58286 7.921C7.84807 7.921 8.10243 7.81564 8.28996 7.62811C8.4775 7.44057 8.58286 7.18622 8.58286 6.921V3.921C8.58286 3.65578 8.4775 3.40143 8.28996 3.21389C8.10243 3.02636 7.84807 2.921 7.58286 2.921Z" fill="#9CA3AF"/>
</svg>
