<svg width="3430" height="1653" viewBox="0 0 3430 1653" fill="none" xmlns="http://www.w3.org/2000/svg">
<path d="M1001.36 1303.02L944.81 1389.62L934.75 1333.56L944.47 1286.85L1001.36 1303.02Z" stroke="#878787" stroke-width="0.24" stroke-linecap="round" stroke-linejoin="round"/>
<path d="M1033.99 1302.95L1024.54 1344.7L994.225 1387.07L936.041 1397.39L918.98 1339.82L926.389 1306.46L949.772 1281L1019.92 1288.71L1033.99 1302.95Z" stroke="#878787" stroke-width="0.24" stroke-linecap="round" stroke-linejoin="round"/>
<path d="M1041.94 1302.95L1033.11 1391.48L1015.77 1408.19L952.83 1430.75L923.602 1415.55L903.279 1346.01L916.193 1303.7L948.14 1268.14L1024.4 1270.41L1041.94 1302.95Z" stroke="#878787" stroke-width="0.24" stroke-linecap="round" stroke-linejoin="round"/>
<path d="M962.618 1043.49L940.459 1003.18L867.73 1016.52L843.939 1044.59L840.065 1076.02L856.378 1131.26L896.346 1130.02L937.537 1096.04L962.618 1043.49Z" stroke="#878787" stroke-width="0.24" stroke-linecap="round" stroke-linejoin="round"/>
<path d="M1057.71 1302.95L1033.51 1233.68L1001.16 1207.4L939.168 1194.13L905.726 1223.29L870.448 1315.33L865.826 1367.19L883.499 1443.48L927.069 1493.69L958.472 1499.26L1025.63 1449.39L1047.65 1400.9L1057.71 1302.95Z" stroke="#878787" stroke-width="0.24" stroke-linecap="round" stroke-linejoin="round"/>
<path d="M521.956 1563.44L440.934 1540.12L427.204 1559.18L447.527 1600.86L511.557 1616.61L521.956 1563.44Z" stroke="#878787" stroke-width="0.24" stroke-linecap="round" stroke-linejoin="round"/>
<path d="M1065.6 1302.88L1040.79 1226.66L973.698 1133.94L965.813 1011.43L945.489 979.033L915.446 976.419L868.205 997.537L832.996 1039.57L823.956 1081.32L852.572 1238.08L851.96 1405.3L868.137 1464.18L906.406 1516.73L940.527 1532.35L973.154 1526.57L1031.27 1474.22L1056.83 1398.7L1065.6 1302.88Z" stroke="#878787" stroke-width="0.24" stroke-linecap="round" stroke-linejoin="round"/>
<path d="M888.189 1649.35L934.003 1622.32L947.121 1649.22" stroke="#878787" stroke-width="0.24" stroke-linecap="round" stroke-linejoin="round"/>
<path d="M193.244 1044.86L172.988 1001.11L164.696 1055.39L175.911 1062.26L193.244 1044.86Z" stroke="#878787" stroke-width="0.24" stroke-linecap="round" stroke-linejoin="round"/>
<path d="M555.534 1649.9L534.123 1626.31L520.869 1556.49L473.696 1514.88L436.651 1455.24L427.339 1300.13L415.92 1592.33L429.242 1650.11" stroke="#878787" stroke-width="0.24" stroke-linecap="round" stroke-linejoin="round"/>
<path d="M958.948 1649.22L971.659 1563.78L1054.45 1439.08L1068.25 1350.48L1050.3 1227.35L991.235 1085.51L995.517 946.979L1021.96 869.044L971.251 863.335L910.484 891.331L810.769 1037.85L812.604 1130.43L839.045 1246.13L840.337 1418.51L893.695 1568.05L816.479 1649.42" stroke="#878787" stroke-width="0.24" stroke-linecap="round" stroke-linejoin="round"/>
<path d="M1.35958 345.031L1.22363 258.086" stroke="#878787" stroke-width="0.24" stroke-linecap="round" stroke-linejoin="round"/>
<path d="M210.577 1044.86L188.826 967.959L171.901 953.032L155.316 991.277L156.675 1064.67L177.883 1077.6L210.577 1044.86Z" stroke="#878787" stroke-width="0.24" stroke-linecap="round" stroke-linejoin="round"/>
<path d="M596.25 1649.84L550.981 1619.5L528.89 1546.45L472.133 1472.44L446.304 1322.28L421.63 1293.87L403.481 1311.27L416.804 1464.73L406.948 1597.56L418.639 1650.18" stroke="#878787" stroke-width="0.24" stroke-linecap="round" stroke-linejoin="round"/>
<path d="M970.843 1649.15L982.398 1563.58L1046.63 1475.46L1077.08 1344.98L1068.99 1261.47L1015.16 1071.28L1012.71 951.519L1030.79 862.234L975.533 846.689L889.549 874.822L774.472 1035.44L775.9 1083.66L819.809 1214.21L820.829 1387.42L860.185 1553.67L767.267 1649.56" stroke="#878787" stroke-width="0.24" stroke-linecap="round" stroke-linejoin="round"/>
<path d="M1.69944 540.04L81.2266 350.053L43.6381 315.316L17.401 251.482L1.22363 242.54" stroke="#878787" stroke-width="0.24" stroke-linecap="round" stroke-linejoin="round"/>
<path d="M227.91 1044.79L179.854 1092.94L148.722 1074.03L137.303 999.738L169.454 945.259L205.071 962.593L227.91 1044.79Z" stroke="#878787" stroke-width="0.24" stroke-linecap="round" stroke-linejoin="round"/>
<path d="M672.378 1649.7L593.667 1633.81L566.478 1604.57L495.651 1461.43L457.247 1316.84L412.386 1279.49L353.998 1284.79L344.822 1296.89L380.303 1348.83L403.482 1424.01L397.976 1602.72L407.968 1650.18" stroke="#878787" stroke-width="0.24" stroke-linecap="round" stroke-linejoin="round"/>
<path d="M700.926 1649.63L773.928 1623.15L829.461 1565.5L806.691 1392.99L811.924 1262.29L763.936 1070.11L779.23 992.103L836.87 879.156L861.612 855.356L984.709 828.048L1020.46 833.344L1039.56 855.425L1027.53 973.324L1033.51 1062.26L1085.92 1339.4L1055.26 1475.26L993.07 1563.3L982.67 1649.15" stroke="#878787" stroke-width="0.24" stroke-linecap="round" stroke-linejoin="round"/>
<path d="M1.76751 574.089L40.1716 523.531L88.7036 368.006L77.4882 319.924L46.1532 269.023L1.15576 226.994" stroke="#878787" stroke-width="0.24" stroke-linecap="round" stroke-linejoin="round"/>
<path d="M263.527 1131.26L259.721 1141.51L177.271 1128.02L120.378 1046.99L133.837 966.308L167.007 937.486L196.439 937.555L218.598 960.736L230.425 1084.76L263.527 1131.26Z" stroke="#878787" stroke-width="0.24" stroke-linecap="round" stroke-linejoin="round"/>
<path d="M994.497 1649.15L1003.81 1563.1L1063.96 1475.05L1093.74 1381.16L1094.82 1333.9L1048.33 1100.03L1049.96 843.731L1027.67 816.698L996.129 808.581L949.568 809.131L854.543 838.159L811.585 878.88L773.181 957.159L756.324 1071.14L798.398 1270.34L792.485 1398.56L815.731 1520.45L803.768 1563.65L767.403 1603.68L677.408 1634.01L632.615 1629.27L574.703 1595.22L468.191 1311.34L423.465 1260.92L372.35 1228.8L339.52 1212.42L324.566 1226.18L328.372 1286.44L390.771 1431.3L397.296 1650.18" stroke="#878787" stroke-width="0.24" stroke-linecap="round" stroke-linejoin="round"/>
<path d="M1.83548 608.07L64.3017 534.537L85.9847 485.218L96.7243 369.244L85.9168 302.178L64.9134 262.075L1.15576 211.449" stroke="#878787" stroke-width="0.24" stroke-linecap="round" stroke-linejoin="round"/>
<path d="M138.119 612.334L75.1091 569.962L55.1934 609.032L86.2565 697.423L121.398 693.571L138.119 612.334Z" stroke="#878787" stroke-width="0.24" stroke-linecap="round" stroke-linejoin="round"/>
<path d="M1006.32 1649.08L1014.55 1562.89L1072.6 1474.78L1103.46 1376.75L1100.26 1292.56L1058.59 1093.91L1061.18 831.625L1032.36 787.326L928.429 789.459L839.997 769.098L804.38 751.145L767.811 685.798L747.623 1076.16L785.688 1275.71L772.161 1399.59L804.924 1524.65L796.291 1561.45L766.859 1594.74L682.778 1621.22L639.276 1617.16L582.995 1585.86L540.921 1482.82L519.645 1385.49L456.907 1273.64L391.994 1218.27L292.075 1183.33L232.6 952.138L204.188 927.375L164.696 927.512L120.378 961.562L97.6078 1003.87L92.4419 1047.41L149.402 1116.88L227.094 1167.44L296.494 1259.68L357.94 1375.72L378.128 1438.52L386.692 1650.18" stroke="#878787" stroke-width="0.24" stroke-linecap="round" stroke-linejoin="round"/>
<path d="M750.002 611.234L685.633 559.163L675.913 629.324L697.12 647.965L750.002 611.234Z" stroke="#878787" stroke-width="0.24" stroke-linecap="round" stroke-linejoin="round"/>
<path d="M1.83548 625.817L50.8432 647.691L66.2049 689.788L105.765 721.842L163.813 709.598L175.504 692.677L169.998 615.223L128.127 572.438L99.5111 501.451L93.8695 287.595L80.0032 252.308L1.15576 195.903" stroke="#878787" stroke-width="0.24" stroke-linecap="round" stroke-linejoin="round"/>
<path d="M1.01935 124.503L18.2842 95.2L0.81543 18.2971" stroke="#878787" stroke-width="0.24" stroke-linecap="round" stroke-linejoin="round"/>
<path d="M1018.15 1649.08L1025.29 1562.68L1081.03 1475.33L1115.69 1377.65L1068.86 1087.78L1082.72 865.467L1075.18 824.333L1035.48 779.829L885.198 766.415L818.858 736.631L771.345 610.959L679.175 523.05L663.066 536.05L658.036 602.704L676.049 678.644L718.599 746.88L747.963 901.718L738.855 1081.46L777.055 1288.16L763.732 1407.78L794.116 1528.84L788.882 1559.24L766.315 1585.8L688.08 1608.43L646.005 1605.06L591.22 1576.51L515.295 1348.9L429.039 1219.37L306.689 1168.88L280.52 1102.92L257.545 959.773L196.643 884.659L180.669 871.796L143.76 890.506L109.706 921.734L81.4302 985.224L99.3748 1070.79L142.061 1122.25L217.918 1176.17L346.725 1389.14L370.447 1482.96L376.021 1650.25" stroke="#878787" stroke-width="0.24" stroke-linecap="round" stroke-linejoin="round"/>
<path d="M2233.76 1214.35L2217.31 1197.22L2178.3 1190.83L2135 1208.37L2161.44 1227.08L2233.76 1214.35Z" stroke="#878787" stroke-width="0.24" stroke-linecap="round" stroke-linejoin="round"/>
<path d="M2211.94 1647.02L2228.53 1630.23L2262.31 1646.88" stroke="#878787" stroke-width="0.24" stroke-linecap="round" stroke-linejoin="round"/>
<path d="M1.90307 641.018L40.715 658.352L94.8887 745.642L160.957 735.324L192.7 667.638L191.613 628.637L139.41 560.676L111.814 494.779L110.93 361.265L92.5776 256.229L54.4454 206.496L1.0874 180.357" stroke="#878787" stroke-width="0.24" stroke-linecap="round" stroke-linejoin="round"/>
<path d="M1.0874 178.5L48.5318 98.3642L58.0479 40.0335L49.3475 6.80981" stroke="#878787" stroke-width="0.24" stroke-linecap="round" stroke-linejoin="round"/>
<path d="M365.349 1650.25L360.251 1490.87L338.024 1402.62L208.81 1184.84L94.617 1079.32L73.6816 1027.8L79.4593 949.318L97.8117 903.919L161.365 849.371L215.335 871.245L266.246 945.603L292.551 1096.18L321.371 1154.51L435.972 1213.04L521.889 1335.41L599.444 1567.15L652.666 1593.02L693.382 1595.7L765.772 1576.85L783.241 1533.04L754.692 1417.61L759.11 1292.77L730.087 1086.68L732.669 910.385L638.8 609.514L640.296 538.802L694.877 520.986L763.665 577.46L833.336 722.117L892.947 751.695L1045.54 771.849L1089.25 817.111L1097.27 859.345L1079.12 1081.66L1118.34 1295.66L1120.45 1395.88L1092.1 1478.83L1039.22 1573.35L1029.98 1649.08" stroke="#878787" stroke-width="0.24" stroke-linecap="round" stroke-linejoin="round"/>
<path d="M2251.71 1214.28L2227.71 1155.06L2174.76 1131.46L2143.7 1126.72L2135.61 1136.9L2116.03 1200.94L2123.92 1232.44L2149.41 1249.43L2225.4 1245.37L2251.71 1214.28Z" stroke="#878787" stroke-width="0.24" stroke-linecap="round" stroke-linejoin="round"/>
<path d="M2194.54 1647.02L2228.46 1612.69L2262.65 1617.23L2297.72 1646.81" stroke="#878787" stroke-width="0.24" stroke-linecap="round" stroke-linejoin="round"/>
<path d="M1.97119 671.422L20.4596 679.676L68.4477 815.391L56.2128 993.685L69.3993 1068.73L120.038 1138.34L190.525 1202.24L320.216 1424.15L338.772 1499.61L344.142 1650.25" stroke="#878787" stroke-width="0.24" stroke-linecap="round" stroke-linejoin="round"/>
<path d="M139.274 6.67236L85.5767 187.03L120.786 314.766L136.352 481.434L220.093 613.917L212.684 785.538L275.082 887.479L314.506 1082.01L365.077 1144.12L472.473 1221.37L526.307 1293.32L556.486 1347.45L593.327 1491.7L642.403 1560.48L695.761 1571.28L725.057 1551.61L726.96 1220.2L704.937 930.608L644.918 697.561L591.22 591.286L588.093 531.098L633.702 503.79L676.389 501.176L744.701 519.817L778.822 551.871L828.986 647.966L879.761 707.328L945.082 733.604L1065.05 755.547L1112.63 785.676L1125.34 840.98L1100.87 986.187V1116.47L1130.92 1274.61L1136.02 1400.42L1118.41 1476.36L1070.56 1559.79L1053.5 1649.01" stroke="#878787" stroke-width="0.24" stroke-linecap="round" stroke-linejoin="round"/>
<path d="M612.427 166.394L600.668 150.986L601.552 182.215L612.427 166.394Z" stroke="#878787" stroke-width="0.24" stroke-linecap="round" stroke-linejoin="round"/>
<path d="M1449.64 1648.32L1471.8 1616.75L1514.48 1596.66L1510.95 1648.25" stroke="#878787" stroke-width="0.24" stroke-linecap="round" stroke-linejoin="round"/>
<path d="M1553.63 1475.12L1541.2 1524.71L1528.08 1503.94L1543.1 1468.17L1553.63 1475.12Z" stroke="#878787" stroke-width="0.24" stroke-linecap="round" stroke-linejoin="round"/>
<path d="M2287.73 1214.21L2235.53 1117.22L2214.25 1097.55L2179.45 1091.71L2139.96 1098.58L2099.79 1133.87L2069.74 1175.9L2052.48 1231.55L2081.16 1279.77L2109.37 1295.11L2201.07 1305.15L2239.88 1298.06L2287.73 1214.21Z" stroke="#878787" stroke-width="0.24" stroke-linecap="round" stroke-linejoin="round"/>
<path d="M2159.74 1647.08L2228.53 1557.87L2314.04 1597.83L2337.62 1646.74" stroke="#878787" stroke-width="0.24" stroke-linecap="round" stroke-linejoin="round"/>
<path d="M1.97119 686.623L35.9572 747.499L54.7174 823.645L51.4548 1041.28L80.2749 1104.98L196.371 1231.41L310.02 1429.45L329.46 1504.97L334.082 1650.32" stroke="#878787" stroke-width="0.24" stroke-linecap="round" stroke-linejoin="round"/>
<path d="M1065.19 1649.01L1080.35 1560.34L1127.59 1477.04L1145.46 1396.5L1138.87 1269.93L1109.51 1108.97L1111 983.642L1136.83 837.747L1122.22 776.114L1070.76 744.541L894.578 699.349L855.358 662.136L786.775 542.998L752.925 512.87L636.965 494.916L604.27 503.583L580.276 529.722L580.616 597.201L635.537 703.201L698.887 974.218L715.88 1224.53L704.733 1362.72L715.2 1484.75L707.384 1553.05L678.02 1564.61L602.027 1479.18L568.041 1341.47L535.415 1283.62L480.561 1215.59L373.641 1138.2L321.507 1073.55L287.521 880.463L230.153 775.22L243.679 639.849L234.435 606.763L148.315 474.349L135.264 394.42L110.046 184.966L179.582 6.60352" stroke="#878787" stroke-width="0.24" stroke-linecap="round" stroke-linejoin="round"/>
<path d="M657.288 120.857L642.199 171.277L606.853 194.527L570.76 164.743L581.092 98.9832L600.056 78.8288L620.448 74.4265L657.288 120.857Z" stroke="#878787" stroke-width="0.24" stroke-linecap="round" stroke-linejoin="round"/>
<path d="M1425.64 1648.39L1473.63 1527.95L1536.98 1460.26L1563.9 1459.64L1577.08 1483.3L1586.26 1607.95L1641.45 1647.98" stroke="#878787" stroke-width="0.24" stroke-linecap="round" stroke-linejoin="round"/>
<path d="M2305.68 1214.21L2221.53 1081.87L2140.57 1041.49L2056.69 1160.56L2038.68 1208.23L2041.26 1284.1L2074.57 1314.23L2197.06 1317.87L2268.36 1291.32L2305.68 1214.21Z" stroke="#878787" stroke-width="0.24" stroke-linecap="round" stroke-linejoin="round"/>
<path d="M2142.34 1647.08L2195.49 1569.91L2263.6 1540.26L2319.81 1571.83L2352.85 1646.74" stroke="#878787" stroke-width="0.24" stroke-linecap="round" stroke-linejoin="round"/>
<path d="M1.97119 704.095L40.5113 789.459L43.9778 1045.69L75.3129 1113.3L206.023 1266.08L299.824 1434.74L320.148 1510.41L323.954 1650.32" stroke="#878787" stroke-width="0.24" stroke-linecap="round" stroke-linejoin="round"/>
<path d="M218.937 6.53467L158.238 91.8295L126.835 175.955L156.267 463.068L196.235 538.114L257.613 611.784L247.554 764.902L310.156 908.596L328.576 1065.08L382.206 1132.22L463.84 1187.8L544.523 1273.85L601.823 1395.6L619.428 1406.75L674.757 1353.57L698.887 1277.98L704.189 1189.93L685.021 959.223L654.094 867.806L626.089 708.841L569.944 603.048L572.459 528.346L602.503 496.636L640.227 486.043L683.865 484.392L756.391 506.197L795.135 539.49L863.311 648.103L909.396 691.301L1076.54 733.467L1131.8 766.553L1149.2 831.625L1123.98 971.123L1120.25 1108.97L1154.84 1392.58L1136.69 1477.73L1090.07 1560.9L1076.95 1649.01" stroke="#878787" stroke-width="0.24" stroke-linecap="round" stroke-linejoin="round"/>
<path d="M690.731 92.2421L687.128 178.706L611.272 200.512L573.343 197.829L542.416 177.812L539.765 143.694L557.234 96.0941L597.745 58.2618L637.917 54.7537L678.292 71.9502L690.731 92.2421Z" stroke="#878787" stroke-width="0.24" stroke-linecap="round" stroke-linejoin="round"/>
<path d="M705.48 1476.56L678.292 1435.98L661.435 1475.33L664.289 1505.8L687.604 1532.01L705.48 1476.56Z" stroke="#878787" stroke-width="0.24" stroke-linecap="round" stroke-linejoin="round"/>
<path d="M1401.65 1648.39L1458 1505.52L1538.41 1437.15L1580.55 1439.97L1605.57 1467.41L1606.65 1586.21L1676.8 1647.91" stroke="#878787" stroke-width="0.24" stroke-linecap="round" stroke-linejoin="round"/>
<path d="M2320.83 1214.14L2232.74 1068.59L2192.03 1038.67L2137.99 1036.26L2073.62 1097.55L2032.02 1165.38L2017.47 1210.91L2020.67 1294.76L2036.64 1321.31L2101.22 1338.79L2237.23 1320.63L2291.61 1302.05L2313.36 1267.66L2320.83 1214.14Z" stroke="#878787" stroke-width="0.24" stroke-linecap="round" stroke-linejoin="round"/>
<path d="M2125.35 1647.15L2182.85 1557.73L2229.75 1523.41L2272.17 1515.7L2302.89 1524.92L2322.19 1547.62L2368.14 1646.74" stroke="#878787" stroke-width="0.24" stroke-linecap="round" stroke-linejoin="round"/>
<path d="M2.03906 731.472L27.3926 794.205L35.4812 1048.71L81.974 1138.07L199.294 1274.13L289.628 1439.97L310.836 1515.77L313.894 1650.32" stroke="#878787" stroke-width="0.24" stroke-linecap="round" stroke-linejoin="round"/>
<path d="M258.021 6.46582L192.496 77.1092L141.246 170.452L135.332 262.488L164.22 451.787L273.723 631.182L267.673 762.082L322.255 901.855L335.645 1056.62L390.771 1126.3L514.072 1220.2L595.298 1316.29L618.205 1328.33L677.952 1273.58L695.693 1192.41L616.709 714.482L559.341 608.964L564.643 527.039L600.804 489.757L687.06 475.725L759.858 499.525L923.942 683.115L1082.25 722.461L1141.38 756.923L1157.36 786.363L1130.64 1102.71L1164.29 1388.59L1145.87 1478.42L1099.79 1561.45L1088.64 1648.94" stroke="#878787" stroke-width="0.24" stroke-linecap="round" stroke-linejoin="round"/>
<path d="M566.682 5.91565L508.906 89.766L507.139 157.314L528.89 201.337L602.503 217.915L675.709 194.802L700.315 146.239L685.701 36.8694L651.511 5.77808" stroke="#878787" stroke-width="0.24" stroke-linecap="round" stroke-linejoin="round"/>
<path d="M1377.65 1648.46L1441.96 1479.31L1512.72 1405.37L1570.63 1375.1L1613.38 1403.03L1635.54 1456.07L1623.92 1572.52L1712.21 1647.84" stroke="#878787" stroke-width="0.24" stroke-linecap="round" stroke-linejoin="round"/>
<path d="M2333.75 1214.14L2228.6 1039.29L2177.41 1016.73L2139.89 1022.09L2098.7 1048.58L2027.87 1133.66L1991.1 1223.98L1990.42 1271.24L2019.38 1338.65L2053.16 1353.64L2232.81 1337.96L2322.87 1302.12L2333.75 1214.14Z" stroke="#878787" stroke-width="0.24" stroke-linecap="round" stroke-linejoin="round"/>
<path d="M2108.35 1647.15L2211.4 1485.23L2249.87 1467.76L2316.55 1501.12L2383.44 1646.67" stroke="#878787" stroke-width="0.24" stroke-linecap="round" stroke-linejoin="round"/>
<path d="M2.10693 758.918L14.2739 799.02L26.9847 1051.81L75.2447 1144.95L192.564 1282.11L281.472 1448.57L306.213 1563.3L303.766 1650.39" stroke="#878787" stroke-width="0.24" stroke-linecap="round" stroke-linejoin="round"/>
<path d="M281.472 6.39722L203.168 84.8134L150.49 172.722L142.945 259.668L172.241 440.507L212.004 523.944L284.87 625.61L285.754 751.282L334.354 895.114L342.646 1048.16L420.066 1140.06L525.559 1208.57L598.357 1300.81L665.037 1252.53L688.352 1204.58L607.261 720.191L548.669 614.879L543.843 573.401L556.826 525.664L599.036 482.879L690.187 467.058L763.325 492.922L810.973 531.098L902.123 651.818L965.269 687.174L1118.75 725.763L1150.97 747.362L1169.52 780.035L1174.96 816.01L1144.65 961.699L1140.43 1050.71L1173.67 1384.67L1155.05 1479.11L1109.51 1562L1100.4 1648.94" stroke="#878787" stroke-width="0.24" stroke-linecap="round" stroke-linejoin="round"/>
<path d="M524.199 5.98437L493.816 81.9931L494.428 164.674L522.908 216.883L594.686 236.005L674.485 205.946L700.179 175.542L716.696 98.0202L692.294 5.70923" stroke="#878787" stroke-width="0.24" stroke-linecap="round" stroke-linejoin="round"/>
<path d="M1338.64 1648.53L1411.71 1483.51L1504.29 1389.96L1597.27 1333.97L1622.15 1339.54L1637.72 1368.71L1657.9 1564.2L1740.49 1647.84" stroke="#878787" stroke-width="0.24" stroke-linecap="round" stroke-linejoin="round"/>
<path d="M1638.74 1215.38L1566.01 1110.76L1542.15 1110.55L1518.7 1131.74L1522.71 1200.18L1560.36 1241.38L1627.04 1255.48L1638.74 1215.38Z" stroke="#878787" stroke-width="0.24" stroke-linecap="round" stroke-linejoin="round"/>
<path d="M2346.73 1214.14L2237.36 1028.08L2182.65 1000.77L2139.01 1006.41L2049.56 1078.15L1984.1 1174.18L1967.24 1240.9L1970.78 1304.39L2002.25 1358.87L2048.67 1387.07L2225.67 1354.47L2305.13 1329.29L2335.38 1303.98L2346.73 1214.14Z" stroke="#878787" stroke-width="0.24" stroke-linecap="round" stroke-linejoin="round"/>
<path d="M2091.43 1647.22L2188.56 1486.81L2265.57 1445.47L2317.3 1467.28L2398.66 1646.67" stroke="#878787" stroke-width="0.24" stroke-linecap="round" stroke-linejoin="round"/>
<path d="M2636.29 1646.26L2680.74 1634.77L2753.54 1646.05" stroke="#878787" stroke-width="0.24" stroke-linecap="round" stroke-linejoin="round"/>
<path d="M2.44678 947.598L33.442 1095.42L170.881 1266.77L274.063 1458.4L297.037 1567.09L293.706 1650.39" stroke="#878787" stroke-width="0.24" stroke-linecap="round" stroke-linejoin="round"/>
<path d="M304.99 6.39722L181.961 134.271L159.666 174.992L150.558 256.779L179.921 425.374L220.841 518.785L296.018 620.107L309.748 779.278L357.6 857.007L341.831 981.441L349.851 1038.95L427.271 1133.53L540.58 1194.47L584.558 1235.67L611.067 1242.42L641.791 1214.14L637.237 1005.58L598.493 745.092L537.182 621.689L512.44 539.765L592.307 443.877L694.129 458.597L766.723 486.249L818.042 525.801L910.144 643.838L973.086 677.406L1105.36 702.1L1160.62 737.8L1181.69 773.707L1187.88 808.237L1154.91 956.953L1150.7 1046.58L1183.12 1380.74L1167.21 1475.88L1122.76 1568.26L1112.09 1648.94" stroke="#878787" stroke-width="0.24" stroke-linecap="round" stroke-linejoin="round"/>
<path d="M481.037 6.0531L473.832 87.5647L494.156 204.432L543.707 248.18L586.869 254.027L673.262 217.02L706.772 178.087L730.154 92.93L706.364 5.64038" stroke="#878787" stroke-width="0.24" stroke-linecap="round" stroke-linejoin="round"/>
<path d="M1295.95 1648.6L1308.19 1569.29L1352.71 1490.6L1553.23 1307.49L1554.31 1286.3L1456.16 1127.75L1502.59 1095.14L1594.89 1080.49L1627.04 1130.98L1654.44 1223.43L1679.86 1553.88L1751.16 1611.52L1768.22 1647.77" stroke="#878787" stroke-width="0.24" stroke-linecap="round" stroke-linejoin="round"/>
<path d="M2359.71 1214.08L2347.82 1305.84L2305.2 1343.53L2136.49 1380.26L2009.66 1426.49L1965.68 1398.49L1956.5 1242.35L1976.01 1153.82L2040.86 1061.37L2138.06 990.796L2222.75 992.103L2359.71 1214.08Z" stroke="#878787" stroke-width="0.24" stroke-linecap="round" stroke-linejoin="round"/>
<path d="M2074.44 1647.22L2114.06 1557.04L2176.39 1468.17L2226.35 1432.47L2274.2 1421.6L2307.17 1426.97L2328.11 1452.21L2426.53 1646.6" stroke="#878787" stroke-width="0.24" stroke-linecap="round" stroke-linejoin="round"/>
<path d="M2604.89 1646.33L2652.26 1625.14L2736.89 1615.72L2766.12 1622.05L2774.21 1645.98" stroke="#878787" stroke-width="0.24" stroke-linecap="round" stroke-linejoin="round"/>
<path d="M2.58301 1047.75L42.8904 1133.8L165.648 1276.53L266.654 1468.17L287.929 1570.87L283.579 1650.39" stroke="#878787" stroke-width="0.24" stroke-linecap="round" stroke-linejoin="round"/>
<path d="M328.44 6.32837L188.894 143.213L160.414 208.766L161.297 289.452L214.995 482.329L307.165 614.535L325.857 769.923L358.28 816.56L387.372 834.032L402.122 867.531L372.69 1006.14L380.371 1045.48L434.408 1127.06L555.67 1180.3L606.921 1231.07L623.982 1211.67L618.001 970.848L580.752 855.356L579.596 779.003L560.768 699.693L501.225 558.475L529.025 484.53L593.871 426.818L649.064 434.109L770.19 479.577L825.179 520.505L918.165 635.859L978.388 667.226L1121.26 692.677L1171.9 724.387L1207.32 768.823L1161.16 997.537L1193.11 1412.73L1145.87 1565.44L1139.48 1622.18L1160.42 1648.87" stroke="#878787" stroke-width="0.24" stroke-linecap="round" stroke-linejoin="round"/>
<path d="M437.739 6.12188L484.64 215.851L517.334 262.901L567.566 280.991L639.072 259.53L718.055 178.569L743.545 87.7711L720.502 5.64038" stroke="#878787" stroke-width="0.24" stroke-linecap="round" stroke-linejoin="round"/>
<path d="M1238.92 1648.67L1246.67 1607.33L1295.07 1524.85L1465.41 1379.71L1495.65 1311.27L1485.32 1226.04L1446.37 1152.51L1452.36 1125.41L1543.1 1043.21L1607.94 1029.38L1644.31 1059.99L1678.43 1212.84L1681.29 1383.77L1701.81 1543.56L1769.99 1592.61L1795.89 1647.7" stroke="#878787" stroke-width="0.24" stroke-linecap="round" stroke-linejoin="round"/>
<path d="M1470.44 523.463L1458.13 552.078L1457.79 506.404L1470.44 523.463Z" stroke="#878787" stroke-width="0.24" stroke-linecap="round" stroke-linejoin="round"/>
<path d="M2455.28 1646.53L2404.23 1577.4L2340 1438.11L2332.66 1396.5L2356.59 1304.8L2361.48 1213.53L2235.46 976.488L2169.32 943.265L2110.66 970.779L1989.33 1095.56L1967.86 1127.54L1948.28 1205.06L1916.13 1442.03L1922.04 1470.65L1946.31 1486.88L1978.05 1486.68L2140.91 1393.06L2169.46 1399.18L2119.57 1467.28L2057.44 1647.29" stroke="#878787" stroke-width="0.24" stroke-linecap="round" stroke-linejoin="round"/>
<path d="M2573.48 1646.33L2649.68 1612.28L2744.43 1596.46L2781.62 1606.71L2794.87 1645.98" stroke="#878787" stroke-width="0.24" stroke-linecap="round" stroke-linejoin="round"/>
<path d="M2.65088 1069.35L33.4422 1136.76L160.414 1286.23L259.245 1477.94L278.753 1574.65L273.451 1650.39" stroke="#878787" stroke-width="0.24" stroke-linecap="round" stroke-linejoin="round"/>
<path d="M734.572 5.64038L756.935 82.6121L730.494 178.5L691.886 233.323L601.212 304.791L525.831 301.971L505.847 279.753L454.8 185.035L428.223 94.0994L392.742 43.8167L349.58 36.4566L265.566 80.067L195.827 152.155L168.23 206.771L166.599 279.822L197.458 406.389L252.108 532.13L318.312 608.964L351.347 778.315L472.745 824.746L508.43 826.603L538.338 792.141L546.358 752.864L545.407 708.016L488.038 601.879L495.787 522.5L519.713 473.455L593.939 409.346L666.533 424.411L806.691 492.922L951.335 643.907L1134.72 682.978L1204.26 731.334L1219.14 793.999L1175.57 947.46L1173.26 1123L1192.02 1321.24L1227.98 1476.49L1183.46 1554.84L1179.65 1587.93L1206.09 1592.26L1316.14 1469.2L1455.55 1350.82L1475.67 1307.69L1473.97 1272.54L1435.16 1166.13L1441.14 1128.78L1467.17 1084.28L1544.8 1008.13L1618.48 1005.03L1661.44 1050.91L1702.83 1203.14L1705.35 1457.03L1728.66 1485.3L1794.93 1386.8L1836.94 1429.51L1874.19 1423.39L1904.64 1392.3L1954.4 1126.51L2102.51 956.403L2145.13 923.385L2187.2 912.448L2237.98 938.518L2373.72 1209.05L2378 1292.42L2353.6 1384.87L2365.08 1468.31L2442.71 1605.95L2483.97 1646.53" stroke="#878787" stroke-width="0.24" stroke-linecap="round" stroke-linejoin="round"/>
<path d="M608.892 1130.64L603.998 981.647L584.422 937.28L523.384 892.363L487.97 890.712L440.118 912.104L404.229 954.958L392.13 998.018L398.111 1036.4L434.476 1087.78L474.58 1125L570.692 1166.2L602.843 1219.72L608.892 1130.64Z" stroke="#878787" stroke-width="0.24" stroke-linecap="round" stroke-linejoin="round"/>
<path d="M1506.39 523.394L1459.7 700.587L1440.73 550.427L1461.26 462.656L1493 479.233L1506.39 523.394Z" stroke="#878787" stroke-width="0.24" stroke-linecap="round" stroke-linejoin="round"/>
<path d="M2034.4 1647.29L2049.56 1579.19L2042.28 1552.57L2006.4 1537.1L1919.66 1532.62L1829.8 1561.31L1830.48 1647.63" stroke="#878787" stroke-width="0.24" stroke-linecap="round" stroke-linejoin="round"/>
<path d="M2489.27 1646.53L2751.91 1577.27L2797.04 1591.3L2815.53 1645.92" stroke="#878787" stroke-width="0.24" stroke-linecap="round" stroke-linejoin="round"/>
<path d="M2.65088 1091.02L24.062 1139.79L112.018 1232.92L149.878 1294L234.979 1467.9L269.645 1578.44L263.391 1650.45" stroke="#878787" stroke-width="0.24" stroke-linecap="round" stroke-linejoin="round"/>
<path d="M537.046 698.179L482.601 644.182L468.327 612.403L466.967 572.989L525.151 405.15L517.13 351.428L400.423 87.0145L375.681 62.1827L336.597 60.6694L246.738 121.958L182.641 216.814L171.153 275.557L206.975 401.298L258.905 525.182L358.892 629.806L391.246 736.975L512.984 798.882L527.122 788.358L537.046 698.179Z" stroke="#878787" stroke-width="0.24" stroke-linecap="round" stroke-linejoin="round"/>
<path d="M550.981 1130.78L522.908 951.519L473.493 925.311L439.643 933.703L415.852 959.704L415.648 1026.98L482.805 1078.5L511.081 1134.28L550.981 1130.78Z" stroke="#878787" stroke-width="0.24" stroke-linecap="round" stroke-linejoin="round"/>
<path d="M748.711 5.57178L772.025 102.698L744.7 179.532L644.306 343.449L651.035 384.859L673.194 412.511L812.536 487.488L956.161 634.002L1148.18 673.21L1198.89 698.111L1232.4 743.922L1223.56 833.069L1184.41 947.461L1183.26 1119.08L1198.68 1310.24L1249.46 1429.38L1320.42 1441.21L1369.63 1415.83L1444.13 1335.76L1458.68 1291.6L1418.17 1173.42L1427.21 1128.71L1545.27 942.508L1633.23 985.362L1678.57 1041.84L1732.67 1188.83L1733.69 1311.2L1749.39 1346.97L1880.78 1403.44L1905.66 1355.43L1940.87 1125.48L2005.04 1034.68L2155.05 867.737L2199.91 792.279L2281 713.863L2318.25 698.661L2323.76 749.219L2265.78 862.785L2264.82 953.583L2315.33 1078.22L2395.33 1218.89L2401.38 1275.09L2370.52 1420.3L2401.04 1515.22L2456.64 1591.37L2521.42 1615.58L2742.94 1556.91L2914.09 1471.13L2893.84 1516.12L2850.95 1560.55L2833.07 1645.92" stroke="#878787" stroke-width="0.24" stroke-linecap="round" stroke-linejoin="round"/>
<path d="M1245.11 1517.97L1201.47 1588.55L1185.16 1559.31L1206.3 1530.42L1245.11 1517.97Z" stroke="#878787" stroke-width="0.24" stroke-linecap="round" stroke-linejoin="round"/>
<path d="M1542.15 523.188L1498.98 691.232L1470.37 715.238L1449.37 708.153L1435.36 684.835L1424.9 560.126L1434.89 471.254L1462.14 422.553L1484.85 422.485L1532.56 459.216L1542.15 523.188Z" stroke="#878787" stroke-width="0.24" stroke-linecap="round" stroke-linejoin="round"/>
<path d="M1996.95 581.793L1969.49 659.866L1899 703.063L1877.93 698.386L1867.26 677.956L1879.15 608.07L1961.47 507.16L1981.45 504.959L1996.95 581.793Z" stroke="#878787" stroke-width="0.24" stroke-linecap="round" stroke-linejoin="round"/>
<path d="M1866.44 1647.57L1890.84 1599.83L1973.84 1588.62L2011.29 1602.17V1647.36" stroke="#878787" stroke-width="0.24" stroke-linecap="round" stroke-linejoin="round"/>
<path d="M2.71875 1136.62L27.8004 1191.51L94.0051 1245.3L203.916 1487.57L208.946 1575.34L157.967 1650.59" stroke="#878787" stroke-width="0.24" stroke-linecap="round" stroke-linejoin="round"/>
<path d="M491.437 438.649L484.3 348.471L454.46 276.796L365.961 106L353.93 89.0781L335.17 89.6284L268.353 143.075L211.325 227.957L204.731 313.665L240.145 425.236L290.512 528.209L347.608 572.301L422.242 561.501L455.956 528.14L491.437 438.649Z" stroke="#878787" stroke-width="0.24" stroke-linecap="round" stroke-linejoin="round"/>
<path d="M452.829 698.317L429.447 685.592L424.145 704.095L452.829 698.317Z" stroke="#878787" stroke-width="0.24" stroke-linecap="round" stroke-linejoin="round"/>
<path d="M778.754 5.50293L796.495 56.7486L790.242 143.969L665.513 343.312L668.572 371.927L872.284 510.875L972.474 615.086L1037.25 635.446L1165.79 642.875L1241.58 661.929L1288.07 689.581L1277.8 775.082L1197.05 975.25L1202.56 1135.87L1240.49 1220.4L1248.3 1298.34L1281.68 1394.98L1339.79 1402.96L1381.87 1378.89L1378.06 1230.93L1395.74 1132.22L1469.08 1011.57L1506.94 908.39L1491.85 835.133L1411.71 742.615L1393.08 579.523L1403.96 483.567L1424.01 432.459L1462.42 387.266L1507.41 375.435L1538.14 383.07L1566.21 445.115L1558.39 583.307L1578.92 698.867L1585.51 865.123L1764.55 1079.46L1848.09 1135.73L1839.59 1295.86L1859.58 1317.12L1879.02 1322.83L1893.02 1301.3L1897.44 1141.51L1911.57 1104.98L2016.05 953.582L2076.41 837.403L2148.52 765.659L2258.57 685.454L2356.18 652.987L2387.85 661.104L2402.06 678.713L2399.95 701.825L2310.16 867.393L2299.63 938.656L2326.81 1057.66L2419.32 1228.45L2415.25 1307.28L2393.09 1381.36L2404.85 1463.7L2481.04 1564.68L2540.59 1574.86L2617.33 1553.74L2819.48 1447.05L2905.32 1440.38L2955.89 1479.31L2950.39 1513.16L2859.51 1645.85" stroke="#878787" stroke-width="0.24" stroke-linecap="round" stroke-linejoin="round"/>
<path d="M1522.37 90.7288L1500.96 47.6687L1459.02 47.7375L1427.07 126.154L1462.01 138.742L1522.37 90.7288Z" stroke="#878787" stroke-width="0.24" stroke-linecap="round" stroke-linejoin="round"/>
<path d="M2055.74 522.431L2055.13 601.466L2015.64 682.152L1928.43 737.869L1847.95 729.34L1823.42 700.105L1826.95 613.985L1925.78 442.57L1964.59 414.024L1999.12 410.86L2021.42 435.279L2055.74 522.431Z" stroke="#878787" stroke-width="0.24" stroke-linecap="round" stroke-linejoin="round"/>
<path d="M2834.56 174.992L2819.54 212.549L2798.34 207.734L2822.53 149.61L2834.56 174.992Z" stroke="#878787" stroke-width="0.24" stroke-linecap="round" stroke-linejoin="round"/>
<path d="M2.85498 1177.14L115.824 1314.37L186.447 1496.79L165.376 1572.52L68.8557 1650.8" stroke="#878787" stroke-width="0.24" stroke-linecap="round" stroke-linejoin="round"/>
<path d="M478.998 438.718L470.977 353.148L365.689 149.197L339.044 130.006L273.247 156.145L229.609 217.296L215.743 306.718L235.251 385.615L299.076 520.436L353.658 560.263L421.766 548.57L445.624 527.04L478.998 438.718Z" stroke="#878787" stroke-width="0.24" stroke-linecap="round" stroke-linejoin="round"/>
<path d="M797.175 5.50293L813.284 93.4804L803.02 137.572L762.645 221.354L676.185 343.243L677.408 365.461L880.304 503.446L944.334 570.65L1014.82 619.419L1257.96 632.282L1328.38 654.913L1330.41 732.366L1247.96 871.933L1216.22 968.165L1236.95 1131.46L1257.82 1159.25L1292.83 1165.93L1337.01 1132.98L1470.37 958.26L1482.4 918.983L1471.86 854.943L1392.88 752.245L1379.08 537.839L1389.48 445.184L1423.33 357.138L1456.77 329.142L1524.75 331.205L1559.28 365.117L1580.69 436.792L1574.84 573.745L1617.66 849.99L1769.24 1032.82L1813.01 1067.35L1884.39 1063.64L1963.03 997.537L2058.73 819.656L2138.53 734.361L2268.15 659.178L2402.67 611.509L2411.17 699.899L2311.72 943.127L2334.77 1049.47L2428.98 1223.02L2408.04 1401.24L2427.41 1478.56L2480.36 1537.92L2557.1 1548.93L2651.58 1503.46L2745.25 1433.98L2829.47 1412.11L2913.41 1424.35L2981.93 1455.93L2995.05 1481.17L2872.77 1645.85" stroke="#878787" stroke-width="0.24" stroke-linecap="round" stroke-linejoin="round"/>
<path d="M1306.15 1302.47L1288.41 1271.03L1289.9 1331.77L1306.15 1302.47Z" stroke="#878787" stroke-width="0.24" stroke-linecap="round" stroke-linejoin="round"/>
<path d="M1449.37 4.33362L1398.25 91.6232L1414.9 173.341L1470.84 199.342L1531.75 184.347L1542.49 170.039L1545.61 4.19604" stroke="#878787" stroke-width="0.24" stroke-linecap="round" stroke-linejoin="round"/>
<path d="M2074.44 608.895L2078.17 699.28L1966.84 753.415L1874.87 763.526L1834.29 750.251L1790.99 705.746L1798.13 609.033L1881.39 443.052L1971.53 384.24L2018.22 385.822L2056.15 432.459L2074.44 608.895Z" stroke="#878787" stroke-width="0.24" stroke-linecap="round" stroke-linejoin="round"/>
<path d="M1889.21 1301.43L1883.37 1268.35L1879.29 1307.07L1889.21 1301.43Z" stroke="#878787" stroke-width="0.24" stroke-linecap="round" stroke-linejoin="round"/>
<path d="M2056.29 3.30176H2053.43" stroke="#878787" stroke-width="0.24" stroke-linecap="round" stroke-linejoin="round"/>
<path d="M2849.04 174.923L2823.55 87.2896L2750.35 224.449L2742.6 264.964L2832.93 260.906L2849.04 174.923Z" stroke="#878787" stroke-width="0.24" stroke-linecap="round" stroke-linejoin="round"/>
<path d="M2.92285 1217.65L90.9465 1300.75L173.057 1471.82L152.529 1513.16L81.0226 1585.59L37.8604 1650.8" stroke="#878787" stroke-width="0.24" stroke-linecap="round" stroke-linejoin="round"/>
<path d="M466.627 438.718L457.587 357.826L371.806 188.13L325.925 160.822L286.298 179.463L229.133 257.191L225.938 300.939L242.592 375.366L309.408 515.621L359.639 548.226L421.29 535.707L435.292 525.939L466.627 438.718Z" stroke="#878787" stroke-width="0.24" stroke-linecap="round" stroke-linejoin="round"/>
<path d="M815.595 5.43414L827.422 87.4272L815.867 131.244L686.177 358.995L888.393 496.017L1003.2 598.233L1049.76 617.425L1233.08 598.508L1281.75 573.401L1327.29 524.77L1403.14 276.108L1367.05 184.622L1362.02 90.8665L1424.96 4.40234" stroke="#878787" stroke-width="0.24" stroke-linecap="round" stroke-linejoin="round"/>
<path d="M1459.9 953.376L1324.09 1115.57L1293.71 1144.33L1270.94 1141.92L1235.39 960.53L1239.4 919.12L1299.15 828.392L1376.02 785.744L1453.92 880.944L1459.9 953.376Z" stroke="#878787" stroke-width="0.24" stroke-linecap="round" stroke-linejoin="round"/>
<path d="M1563.01 4.1272L1559.62 147.065L1510.61 255.678L1590.75 388.779L1599.18 606.075L1642.2 794.48L1689.44 895.114L1810.84 992.584L1916.74 998.431L1973.22 952.895L1994.43 836.44L1942.84 806.036L1867.46 797.025L1813.69 771.712L1771.55 728.17L1766.93 650.098L1843.33 480.746L1898.12 403.981L1974.45 334.782L2039.63 324.464L2066.41 366.561L2085.51 574.708L2104.82 650.992L2135.61 671.628L2171.84 674.311L2386.49 591.011L2417.76 591.148L2431.22 613.985L2425.1 701.963L2353.53 865.536L2329.47 963.969L2358.97 1082.97L2438.56 1217.58L2421.02 1395.53L2437.88 1473.06L2488.25 1522.03L2576.41 1514.19L2647.98 1479.93L2740.36 1298.13L2774.75 1350.62L2959.16 1423.39L3005.58 1457.85L2987.37 1513.71L2885.95 1645.78" stroke="#878787" stroke-width="0.24" stroke-linecap="round" stroke-linejoin="round"/>
<path d="M2095.78 3.23291L2023.52 35.5624L2026.85 3.3017" stroke="#878787" stroke-width="0.24" stroke-linecap="round" stroke-linejoin="round"/>
<path d="M2601.22 315.453L2483.01 348.608L2570.43 358.445L2601.22 315.453Z" stroke="#878787" stroke-width="0.24" stroke-linecap="round" stroke-linejoin="round"/>
<path d="M2863.52 174.923L2849.18 94.3747L2838.24 79.5857L2817.37 81.2366L2716.43 210.623L2700.46 250.794L2710.58 282.849L2784.81 288.558L2847.75 259.805L2863.52 174.923Z" stroke="#878787" stroke-width="0.24" stroke-linecap="round" stroke-linejoin="round"/>
<path d="M2.99072 1259.13L92.4418 1333.35L123.845 1442.51L121.398 1483.58L6.86512 1650.87" stroke="#878787" stroke-width="0.24" stroke-linecap="round" stroke-linejoin="round"/>
<path d="M454.256 438.718L436.108 341.867L347.744 182.352L270.936 216.608L242.184 258.98L239.805 338.703L319.74 510.806L361.338 537.357L404.229 527.521L431.757 498.631L454.256 438.718Z" stroke="#878787" stroke-width="0.24" stroke-linecap="round" stroke-linejoin="round"/>
<path d="M1400.63 4.40234L1338.71 90.385L1349.17 294.267L1305.33 519.611L1279.03 546.231L1241.91 559.231L1033.31 570.788L962.278 542.86L766.111 400.817L721.59 349.296L727.164 316.21L828.646 124.847L841.56 81.374L834.083 5.43414" stroke="#878787" stroke-width="0.24" stroke-linecap="round" stroke-linejoin="round"/>
<path d="M1427.89 869.663L1396.48 956.746L1361.95 983.986L1290.72 1006.34L1264.62 984.536L1256.26 910.385L1297.72 844.144L1370.93 817.386L1427.89 869.663Z" stroke="#878787" stroke-width="0.24" stroke-linecap="round" stroke-linejoin="round"/>
<path d="M1309.75 1105.74L1289.09 1098.45L1286.98 1138L1309.75 1105.74Z" stroke="#878787" stroke-width="0.24" stroke-linecap="round" stroke-linejoin="round"/>
<path d="M2899.21 1645.78L2994.71 1523.54L3015.1 1449.19L2967.79 1408.53L2791.81 1333.97L2744.43 1218.2L2662.05 1295.24L2654.92 1391.82L2612.7 1457.65L2574.5 1487.98L2496.13 1506.14L2448.28 1467.55L2434.01 1389.76L2454.33 1250.95L2448.21 1212.15L2367.12 1078.64L2342.92 957.916L2366.65 866.155L2442.3 693.915L2454.06 600.985L2439.78 568.242L2397.78 568.586L2180.88 654.638L2120.66 632.833L2101.22 565.56L2082.25 354.661L2057.37 267.234L2044.66 262.626L1977.78 302.453L1847.07 444.427L1744.77 660.485L1742.32 751.282L1771.89 809.407L1890.64 872.002L1804.38 910.11L1730.5 889.68L1711.13 872.209L1667.35 699.624L1616.24 592.455L1607.94 379.562L1564.85 271.155L1580.42 4.1272" stroke="#878787" stroke-width="0.24" stroke-linecap="round" stroke-linejoin="round"/>
<path d="M2135.27 3.16406L2054.11 57.3676L1993.68 66.4473L2000.21 3.37042" stroke="#878787" stroke-width="0.24" stroke-linecap="round" stroke-linejoin="round"/>
<path d="M2878 174.923L2865.97 88.2527L2847.55 66.7226L2818.12 65.2781L2657.63 230.709L2497.22 321.163L2476.56 344.412L2476.69 364.704L2494.5 386.165L2577.56 398.341L2775.63 307.749L2862.57 258.705L2878 174.923Z" stroke="#878787" stroke-width="0.24" stroke-linecap="round" stroke-linejoin="round"/>
<path d="M3103.33 846.07L3075.39 872.415L3084.43 847.652L3103.33 846.07Z" stroke="#878787" stroke-width="0.24" stroke-linecap="round" stroke-linejoin="round"/>
<path d="M3.5344 1580.22L80.6825 1515.15L108.007 1446.71L106.036 1406.75L79.595 1351.92L3.05859 1300.75" stroke="#878787" stroke-width="0.24" stroke-linecap="round" stroke-linejoin="round"/>
<path d="M441.818 438.718L430.874 371.789L367.796 237.106L341.559 214.613L271.344 229.195L247.758 262.969L248.03 332.994L310.7 435.416L340.064 524.701L385.537 518.166L441.818 438.718Z" stroke="#878787" stroke-width="0.24" stroke-linecap="round" stroke-linejoin="round"/>
<path d="M852.504 5.36541L855.699 75.3209L819.266 178.294L758.023 293.992L744.157 334.782L753.741 366.218L773.317 391.806L935.362 502.483L1015.23 526.214L1272.16 469.741L1299.15 409.484L1317.91 314.078L1305.26 185.998L1315.39 89.9036L1376.23 4.47119" stroke="#878787" stroke-width="0.24" stroke-linecap="round" stroke-linejoin="round"/>
<path d="M1401.04 869.663L1361.34 844.006L1295.61 859.552L1273.11 901.718L1279.5 963.969L1301.19 973.255L1339.93 959.223L1401.04 869.663Z" stroke="#878787" stroke-width="0.24" stroke-linecap="round" stroke-linejoin="round"/>
<path d="M1973.56 3.43921L1885.61 87.2895L1953.65 202.988L1942.3 290.346L1804.18 475.794L1711.33 640.812L1683.53 637.372L1661.57 617.424L1620.31 539.696L1629.69 378.943L1585.58 220.253L1597.82 4.05828" stroke="#878787" stroke-width="0.24" stroke-linecap="round" stroke-linejoin="round"/>
<path d="M2159.2 3.09546L2077.43 82.7498L2020.87 168.182L2024.41 203.194L2068.11 242.884L2092.24 308.919L2126.5 592.455L2155.46 628.568L2188.22 636.203L2273.59 608.757L2439.72 503.446L2481.52 444.496L2464.25 343.587L2491.17 303.828L2650.16 216.126L2818.93 49.3197L2856.86 53.9284L2877.93 83.025L2889.76 166.463L2863.59 256.435L2821.58 295.161L2701.2 365.598L2640.71 436.242L2599.18 515.002L2480.91 616.186L2366.44 907.014L2356.72 994.785L2374.06 1072.31L2458.75 1207.75L2466.02 1243.72L2447.06 1383.98L2458.68 1462.05L2504.09 1490.32L2581.78 1463.29L2617.46 1388.93L2656.48 1239.66L2726.15 1192L2757.28 1196.47L2808.87 1317.32L2861.55 1354.26L2982.95 1397.39L3024.68 1440.52L3024.55 1480.55L3002.12 1533.38L2912.46 1645.78" stroke="#878787" stroke-width="0.24" stroke-linecap="round" stroke-linejoin="round"/>
<path d="M3176.67 771.643L3110.06 764.833L3055.61 795.443L3014.89 876.198L2996.13 953.101L3131.06 869.457L3167.97 829.767L3176.67 771.643Z" stroke="#878787" stroke-width="0.24" stroke-linecap="round" stroke-linejoin="round"/>
<path d="M3.46643 1543.84L86.868 1483.99L92.3057 1415L79.7989 1377.17L3.05859 1332.25" stroke="#878787" stroke-width="0.24" stroke-linecap="round" stroke-linejoin="round"/>
<path d="M429.447 438.787L394.033 400.06L373.574 275.833L357.396 249.006L333.47 231.603L269.645 242.196L251.768 265.308L258.021 318.411L325.925 429.157L342.986 518.716L366.777 508.811L429.447 438.787Z" stroke="#878787" stroke-width="0.24" stroke-linecap="round" stroke-linejoin="round"/>
<path d="M896.074 5.29644L879.353 88.9404L754.896 337.671L780.453 382.795L835.307 425.098L946.917 479.921L1035.96 474.074L1196.17 421.59L1266.93 374.54L1289.56 323.57L1290.11 285.6L1260.06 208.078L1259.93 130.418L1270.6 92.93L1338.98 4.53979" stroke="#878787" stroke-width="0.24" stroke-linecap="round" stroke-linejoin="round"/>
<path d="M1136.56 264.483L1108.15 270.742L1116.24 240.201L1136.56 264.483Z" stroke="#878787" stroke-width="0.24" stroke-linecap="round" stroke-linejoin="round"/>
<path d="M1374.19 869.732L1339.18 890.506L1285.35 956.128L1374.19 869.732Z" stroke="#878787" stroke-width="0.24" stroke-linecap="round" stroke-linejoin="round"/>
<path d="M1952.29 3.43921L1862.29 89.4219L1873.44 156.695L1918.71 223.417L1916.33 306.305L1870.04 371.927L1789.23 441.745L1712.76 618.525L1630.92 528.484L1659.06 401.505L1655.86 359.958L1609.58 248.731L1615.22 4.05828" stroke="#878787" stroke-width="0.24" stroke-linecap="round" stroke-linejoin="round"/>
<path d="M2807.65 1.99487L2650.7 202.369L2510.07 265.239L2475.74 293.511L2445.36 341.455L2433.67 442.708L2371.13 530.754L2269.17 598.577L2200.05 621.208L2153.55 595.619L2130.17 542.035L2117.46 341.661L2088.23 176.574L2113.99 96.0943L2180.81 3.09545" stroke="#878787" stroke-width="0.24" stroke-linecap="round" stroke-linejoin="round"/>
<path d="M2857.06 1.85718L2887.38 29.578L2902.47 110.952L2898.59 200.58L2876.16 256.572L2730.84 383.896L2696.11 434.109L2671.84 520.574L2649.14 548.157L2571.72 585.095L2496.47 650.923L2392.75 867.531L2367.6 988.113L2380.17 1064.74L2449.91 1166.41L2477.71 1236.43L2460.04 1378.27L2480.91 1473.88L2531.61 1463.08L2594.08 1390.51L2616.71 1259.13L2635.95 1220.06L2709.16 1163.11L2746.61 1156.64L2783.45 1168.54L2841.29 1318.7L3016.53 1399.52L3036.24 1428.48L3025.29 1520.04L3007.15 1557.04L2926.26 1645.71" stroke="#878787" stroke-width="0.24" stroke-linecap="round" stroke-linejoin="round"/>
<path d="M3205.42 742.478L3197.26 832.519L3151.52 904.744L3083.27 949.386L3006.33 973.118L2962.49 981.785L2904.58 968.647L2923.4 905.982L3004.56 775.22L3132.49 727.826L3205.42 742.478Z" stroke="#878787" stroke-width="0.24" stroke-linecap="round" stroke-linejoin="round"/>
<path d="M3164.09 433.972L3057.45 461.005L3088.37 416.225L3125.55 403.775L3164.09 433.972Z" stroke="#878787" stroke-width="0.24" stroke-linecap="round" stroke-linejoin="round"/>
<path d="M3.39835 1518.11L48.9395 1473.81L59.883 1424.49L48.1919 1392.85L3.12646 1362.72" stroke="#878787" stroke-width="0.24" stroke-linecap="round" stroke-linejoin="round"/>
<path d="M379.827 352.323L346.929 260.906L291.124 249.9L255.303 265.721L323.343 376.673L347.065 393.457L379.827 352.323Z" stroke="#878787" stroke-width="0.24" stroke-linecap="round" stroke-linejoin="round"/>
<path d="M950.519 5.22772L765.704 340.56L770.19 358.032L845.163 415.331L890.024 441.607L957.52 457.359L1030.32 442.433L1205.14 349.159L1189.17 324.12L1095.16 286.357L1089.18 213.443L1122.35 156.97L1195.83 127.323L1236.68 91.0728L1297.31 4.60864" stroke="#878787" stroke-width="0.24" stroke-linecap="round" stroke-linejoin="round"/>
<path d="M1932.1 3.50806L1844.76 88.8029L1857.6 166.394L1899.07 244.604L1899.88 277.621L1881.87 320.956L1769.24 433.697L1712.62 549.876L1689.92 542.998L1677.27 516.446L1691.28 381.901L1634.38 241.095L1622.97 83.0936L1632.41 3.98956" stroke="#878787" stroke-width="0.24" stroke-linecap="round" stroke-linejoin="round"/>
<path d="M2202.49 3.02667L2139.08 130.075L2121.47 250.794L2141.05 339.872L2132.21 459.904L2141.18 522.775L2171.84 575.809L2216.09 609.514L2308.12 559.575L2395.74 484.048L2418.85 441.814L2399.07 338.566L2446.38 279.96L2648.8 193.702L2781.14 1.99487" stroke="#878787" stroke-width="0.24" stroke-linecap="round" stroke-linejoin="round"/>
<path d="M2907.3 1.78833L2918.37 261.25L2900.16 288.833L2784.95 358.582L2747.22 396.002L2724.04 432.252L2720.24 465.82L2734.58 491.89L2798.88 544.442L2912.39 545.474L3076.75 383.001L3157.23 327.766L3182.51 332.925L3192.78 357.069L3179.59 431.495L3080.15 524.013L2881.33 621.62L2797.38 629.875L2666.2 620.107L2567.23 638.404L2479.55 720.397L2425.44 829.148L2381.67 944.434L2377.66 1027.53L2400.29 1084.14L2531.61 1254.73L2567.1 1254.87L2743.69 1115.5L2783.65 1099.96L2841.36 1108.63L2834.63 1226.66L2853.87 1301.02L2912.32 1345.39L3016.32 1375.31L3059.14 1418.1L3058.74 1464.39L3021.01 1553.74L2940.19 1645.71" stroke="#878787" stroke-width="0.24" stroke-linecap="round" stroke-linejoin="round"/>
<path d="M2590.82 1386.73L2573.76 1316.64L2543.37 1319.73L2503.34 1333.9L2473.36 1411.35L2507.96 1454.9L2590.82 1386.73Z" stroke="#878787" stroke-width="0.24" stroke-linecap="round" stroke-linejoin="round"/>
<path d="M3234.24 713.312L3228.94 812.227L3176.46 944.09L2941.62 1016.87L2907.29 1014.87L2881.6 991.621L2905.32 786.157L2919.53 768.479L3156.89 692.47L3234.24 713.312Z" stroke="#878787" stroke-width="0.24" stroke-linecap="round" stroke-linejoin="round"/>
<path d="M3425.58 1070.45L3400.64 1121.01L3400.36 1161.94L3425.85 1213.32" stroke="#878787" stroke-width="0.24" stroke-linecap="round" stroke-linejoin="round"/>
<path d="M3.39874 1492.38L19.78 1476.36L20.1878 1449.26L3.19482 1399.8" stroke="#878787" stroke-width="0.24" stroke-linecap="round" stroke-linejoin="round"/>
<path d="M356.037 352.391L335.917 264.483L325.653 274.801L336.733 360.714L356.037 352.391Z" stroke="#878787" stroke-width="0.24" stroke-linecap="round" stroke-linejoin="round"/>
<path d="M1036.57 5.09021L1025.76 30.7474L954.598 67.4105L888.189 141.768L812.468 265.171L794.728 319.03L797.311 353.905L824.227 380.181L934.138 439.544L989.195 421.797L1056.35 354.868L1058.25 226.926L1095.98 100.29L1193.93 69.1301L1251.97 4.67749" stroke="#878787" stroke-width="0.24" stroke-linecap="round" stroke-linejoin="round"/>
<path d="M1649.07 3.98956L1643.36 100.084L1660.35 226.65L1687.4 292.272L1744.3 330.242L1791.88 327.835L1881.94 268.404L1841.77 176.092L1827.22 88.2526L1911.98 3.50806" stroke="#878787" stroke-width="0.24" stroke-linecap="round" stroke-linejoin="round"/>
<path d="M1730.57 505.372L1712.62 487.831L1698.82 514.864L1713.23 539.696L1730.57 505.372Z" stroke="#878787" stroke-width="0.24" stroke-linecap="round" stroke-linejoin="round"/>
<path d="M2224.18 2.9577L2181.69 87.152L2138.6 249.694L2153.96 325.083L2141.18 444.978L2152.26 498.975L2187.95 562.052L2223.5 575.602L2307.58 544.374L2405.46 442.776L2385.2 334.989L2402.26 294.061L2474.93 239.376L2646.83 185.035L2754.63 2.06348" stroke="#878787" stroke-width="0.24" stroke-linecap="round" stroke-linejoin="round"/>
<path d="M2934.96 1.71973L2926.67 270.261L2897.91 311.533L2797.25 372.133L2742.67 440.644L2780.39 477.857L2818.8 493.747L2910.76 474.212L3136.77 281.198L3183.94 256.366L3220.31 294.061L3226.56 337.74L3203.11 429.019L3075.32 566.454L2996.61 622.515L2910.56 658.352L2820.22 670.527L2656.75 644.801L2567.91 661.379L2491.31 735.393L2445.02 823.095L2391.46 949.043L2385.81 1022.64L2405.39 1074.92L2491.31 1171.84L2561.59 1193.44L2597.21 1182.16L2744.16 1086.68L2825.59 1009.92L2863.52 913.411L2887.31 778.109L2917.76 741.859L3078.99 672.178L3158.66 668.67L3252.93 695.359L3262.86 715.445L3261.63 947.185L3248.24 963.9L2993.69 1024.36L2911.71 1077.81L2876.1 1124.93L2855.43 1218.2L2868.89 1293.94L2889.01 1320.01L3067.3 1373.38L3092.72 1403.99L3078.92 1467.62L3034.81 1550.44L2954.06 1645.71" stroke="#878787" stroke-width="0.24" stroke-linecap="round" stroke-linejoin="round"/>
<path d="M2562.95 1386.8L2524.27 1355.64L2490.49 1357.49L2477.03 1400.35L2498.65 1412.11L2562.95 1386.8Z" stroke="#878787" stroke-width="0.24" stroke-linecap="round" stroke-linejoin="round"/>
<path d="M3425.51 1015.28L3338.44 1016.93L3325.87 1037.85L3365.22 1095.49L3374.19 1215.73L3392.27 1240.56L3425.85 1236.02" stroke="#878787" stroke-width="0.24" stroke-linecap="round" stroke-linejoin="round"/>
<path d="M1022.98 183.178L997.42 123.471L943.178 137.297L896.142 169.902L825.723 265.102L814.372 346.407L865.826 386.234L948.004 383.552L989.943 345.031L1018.83 287.045L1022.98 183.178Z" stroke="#878787" stroke-width="0.24" stroke-linecap="round" stroke-linejoin="round"/>
<path d="M1204.94 4.74634L1088.16 30.6099L1088.03 4.9527" stroke="#878787" stroke-width="0.24" stroke-linecap="round" stroke-linejoin="round"/>
<path d="M1665.79 3.98962L1664.09 92.3798L1696.31 247.424L1725.13 288.558L1757.41 300.32L1795.41 295.093L1827.49 264.345L1825.18 185.791L1784.26 113.084L1789.5 90.729L1891.79 3.5769" stroke="#878787" stroke-width="0.24" stroke-linecap="round" stroke-linejoin="round"/>
<path d="M2732.27 2.06348L2692.23 89.6282L2625.01 174.923L2403.76 239.513L2381.19 265.102L2367.53 340.698L2392.07 443.808L2310.43 526.971L2235.53 555.998L2202.09 547.538L2179.59 521.605L2160.76 444.909L2194.13 130.487L2204.67 87.6334L2269.04 2.88891" stroke="#878787" stroke-width="0.24" stroke-linecap="round" stroke-linejoin="round"/>
<path d="M2854.82 867.118L2817.1 758.505L2778.35 702.994L2685.5 672.66L2604.07 671.628L2568.59 684.422L2503.07 750.388L2415.18 918.295L2395.4 981.097L2398.59 1042.11L2497.29 1157.33L2576.95 1160.7L2692.78 1096.11L2778.08 1027.73L2828.31 954.27L2854.82 867.118Z" stroke="#878787" stroke-width="0.24" stroke-linecap="round" stroke-linejoin="round"/>
<path d="M2957.05 387.748L2876.78 381.763L2806.36 427.919L2810.84 451.1L2836.54 462.312L2910.97 449.105L2957.05 387.748Z" stroke="#878787" stroke-width="0.24" stroke-linecap="round" stroke-linejoin="round"/>
<path d="M2967.99 1645.64L3109.31 1460.05L3140.1 1386.45L3116.85 1363.55L2899.48 1310.58L2878.68 1249.78L2880.45 1166.06L2925.78 1090.12L2997.56 1044.38L3075.46 1016.04L3206.58 1009.37L3294.87 1083.93L3314.79 1119.77L3336.95 1261.47L3363.45 1277.01L3425.92 1258.72" stroke="#878787" stroke-width="0.24" stroke-linecap="round" stroke-linejoin="round"/>
<path d="M2961.2 1.71973L2943.93 135.99L2967.93 298.257L3029.64 312.289L3248.51 177.606L3289.57 183.315L3302.62 208.766L3247.83 407.352L3143.09 528.553L3118.14 574.502L3118.76 604.837L3138.13 630.494L3245.18 664.887L3293.44 701.894L3324.37 968.096L3425.44 963.281" stroke="#878787" stroke-width="0.24" stroke-linecap="round" stroke-linejoin="round"/>
<path d="M3424.02 129.593L3369.3 172.24L3387.31 203.813L3424.15 217.295" stroke="#878787" stroke-width="0.24" stroke-linecap="round" stroke-linejoin="round"/>
<path d="M974.378 232.566L946.441 342.693L882.14 352.873L848.562 331.412L852.3 265.033L935.702 175.886L953.102 167.632L974.378 232.566Z" stroke="#878787" stroke-width="0.24" stroke-linecap="round" stroke-linejoin="round"/>
<path d="M1830.55 3.64575L1720.98 92.8614L1705.62 77.0406L1699.16 3.9209" stroke="#878787" stroke-width="0.24" stroke-linecap="round" stroke-linejoin="round"/>
<path d="M1806.01 263.313L1796.57 247.218L1791.94 268.61L1806.01 263.313Z" stroke="#878787" stroke-width="0.24" stroke-linecap="round" stroke-linejoin="round"/>
<path d="M2361.55 435.347L2300.17 317.723L2274.27 303.484L2239.13 306.098L2212.55 342.005L2191.14 432.252L2219.49 523.6L2260.07 518.579L2361.55 435.347Z" stroke="#878787" stroke-width="0.24" stroke-linecap="round" stroke-linejoin="round"/>
<path d="M2699.03 2.13232L2663.62 89.0092L2597.89 154.494L2555.27 176.23L2430.95 148.234L2309.41 140.324L2282.7 123.953L2271.89 90.9352L2351.56 2.7514" stroke="#878787" stroke-width="0.24" stroke-linecap="round" stroke-linejoin="round"/>
<path d="M2803.77 867.256L2769.99 954.683L2737.5 999.256L2604.28 1109.18L2572.74 1125.48L2517.2 1128.37L2473.77 1106.63L2453.72 1075.47L2437.47 1039.98L2451.2 947.254L2501.91 836.783L2572.6 753.415L2656.89 732.779L2727.17 756.579L2762.11 785.951L2803.77 867.256Z" stroke="#878787" stroke-width="0.24" stroke-linecap="round" stroke-linejoin="round"/>
<path d="M3253.2 1126.03L3175.58 1058.62L3096.66 1051.74L3054.45 1061.78L2952.02 1133.87L2918.44 1228.8L2923.74 1273.23L2938.43 1295.17L3010.07 1314.98L3165.11 1299.78L3241.45 1205.48L3253.2 1126.03Z" stroke="#878787" stroke-width="0.24" stroke-linecap="round" stroke-linejoin="round"/>
<path d="M3032.16 1.58203L2996.47 28.8901L2969.56 80.6861L2967.59 123.127L2977.17 200.305L2999.94 225.687L3034.27 230.296L3083.27 219.359L3251.5 86.7393L3329.33 72.9821L3423.81 32.9485" stroke="#878787" stroke-width="0.24" stroke-linecap="round" stroke-linejoin="round"/>
<path d="M2995.79 1645.64L3177.42 1433.78L3425.99 1302.81" stroke="#878787" stroke-width="0.24" stroke-linecap="round" stroke-linejoin="round"/>
<path d="M3424.29 293.304L3340.82 306.374L3278.56 432.459L3213.71 523.6L3204.26 568.449L3212.63 598.921L3237.84 617.631L3424.97 692.47" stroke="#878787" stroke-width="0.24" stroke-linecap="round" stroke-linejoin="round"/>
<path d="M950.043 257.26L939.644 281.817L907.969 284.431L876.226 284.293L857.33 263.933L896.889 233.804L934.546 236.28L950.043 257.26Z" stroke="#878787" stroke-width="0.24" stroke-linecap="round" stroke-linejoin="round"/>
<path d="M2342.11 435.416L2311.52 383.414L2231.52 334.645L2205.62 424.686L2210.11 460.867L2229.82 488.382L2253.27 499.525L2342.11 435.416Z" stroke="#878787" stroke-width="0.24" stroke-linecap="round" stroke-linejoin="round"/>
<path d="M2682.44 2.20117L2628.2 97.8827L2573.89 122.783L2309.75 98.9145L2301.94 89.7659L2388.4 2.68267" stroke="#878787" stroke-width="0.24" stroke-linecap="round" stroke-linejoin="round"/>
<path d="M2778.42 867.256L2743.01 809.475L2695.43 782.236L2639.08 766.69L2576.27 772.468L2473.91 951.519L2454.47 1029.93L2465.89 1062.13L2488.72 1089.16L2524.61 1095.08L2615.22 1071.14L2744.91 953.995L2778.42 867.256Z" stroke="#878787" stroke-width="0.24" stroke-linecap="round" stroke-linejoin="round"/>
<path d="M3216.84 1126.1L3203.99 1213.25L3114.34 1280.8L3018.36 1302.6L2976.63 1282.11L2956.57 1174.45L2969.35 1134.28L3001.44 1102.85L3044.26 1082.83L3128.88 1078.29L3167.22 1085.86L3216.84 1126.1Z" stroke="#878787" stroke-width="0.24" stroke-linecap="round" stroke-linejoin="round"/>
<path d="M3086.2 1.44458L3014.55 46.981L2989.54 83.644L2978.73 160.478L3007.28 207.734L3082.8 201.131L3204.94 92.1047L3248.72 66.8602L3344.15 41.9596L3417.7 0.894287" stroke="#878787" stroke-width="0.24" stroke-linecap="round" stroke-linejoin="round"/>
<path d="M3015.98 1645.57L3174.49 1451.25L3426.06 1320.01" stroke="#878787" stroke-width="0.24" stroke-linecap="round" stroke-linejoin="round"/>
<path d="M3424.29 316.829L3339.6 330.38L3297.45 431.771L3237.84 522.156L3231.73 557.856L3258.1 602.292L3346.39 620.658L3424.9 667.295" stroke="#878787" stroke-width="0.24" stroke-linecap="round" stroke-linejoin="round"/>
<path d="M2322.67 435.416L2303.36 414.437L2265.3 403.568L2237.16 402.399L2220.17 426.474L2242.6 461.28L2280.19 461.142L2322.67 435.416Z" stroke="#878787" stroke-width="0.24" stroke-linecap="round" stroke-linejoin="round"/>
<path d="M2665.79 2.20117L2601.15 82.0619L2542.76 99.2584L2426.87 63.5584L2427.96 2.61389" stroke="#878787" stroke-width="0.24" stroke-linecap="round" stroke-linejoin="round"/>
<path d="M2639.62 969.816L2540.99 973.668L2498.1 993.616L2475.06 1026.77L2477.03 1051.26L2497.02 1070.79L2574.37 1070.17L2617.33 1034.06L2639.62 969.816Z" stroke="#878787" stroke-width="0.24" stroke-linecap="round" stroke-linejoin="round"/>
<path d="M2753.07 867.325L2733.22 845.038L2651.65 839.329L2619.43 870.695L2620.52 905.295L2651.31 921.734L2691.76 920.084L2732.54 897.247L2753.07 867.325Z" stroke="#878787" stroke-width="0.24" stroke-linecap="round" stroke-linejoin="round"/>
<path d="M3180.47 1126.17L3173.88 1212.77L3092.31 1237.05L3054.66 1236.64L3029.03 1219.92L2983.97 1156.09L2985.39 1132.77L3034.06 1103.88L3115.22 1103.26L3180.47 1126.17Z" stroke="#878787" stroke-width="0.24" stroke-linecap="round" stroke-linejoin="round"/>
<path d="M3146.49 1.37561L3009.19 67.2727L2993.21 90.7288L2989.07 153.531L3014.55 189.85L3081.24 184.759L3113.45 158.965L3175.31 68.2357L3379.7 0.962891" stroke="#878787" stroke-width="0.24" stroke-linecap="round" stroke-linejoin="round"/>
<path d="M3037.87 1645.57L3176.53 1461.71L3340.89 1389.89L3426.06 1337.27" stroke="#878787" stroke-width="0.24" stroke-linecap="round" stroke-linejoin="round"/>
<path d="M3424.56 449.999L3345.1 454.814L3269.38 501.795L3253.2 530.96L3362.57 581.037L3397.64 630.356L3424.9 642.188" stroke="#878787" stroke-width="0.24" stroke-linecap="round" stroke-linejoin="round"/>
<path d="M3424.43 393.388L3386.7 386.097L3389.69 355.624L3424.36 340.285" stroke="#878787" stroke-width="0.24" stroke-linecap="round" stroke-linejoin="round"/>
<path d="M2256.19 435.554L2227.17 426.818L2224.11 438.993L2256.19 435.554Z" stroke="#878787" stroke-width="0.24" stroke-linecap="round" stroke-linejoin="round"/>
<path d="M2641.39 2.27002L2572.87 53.5845L2521.21 50.3515L2468.06 18.366L2468.33 2.54516" stroke="#878787" stroke-width="0.24" stroke-linecap="round" stroke-linejoin="round"/>
<path d="M2587.35 1022.85L2519.79 1012.19L2479.96 1034.27L2505.38 1052.5L2570.97 1048.09L2587.35 1022.85Z" stroke="#878787" stroke-width="0.24" stroke-linecap="round" stroke-linejoin="round"/>
<path d="M2686.45 867.462L2653.69 857.351L2643.7 879.087L2686.45 867.462Z" stroke="#878787" stroke-width="0.24" stroke-linecap="round" stroke-linejoin="round"/>
<path d="M3107.13 1126.3L3050.24 1130.78L3085.31 1149.21L3107.13 1126.3Z" stroke="#878787" stroke-width="0.24" stroke-linecap="round" stroke-linejoin="round"/>
<path d="M3137.79 31.0225L3022.64 94.7184L3044.12 163.849L3079.88 176.78L3092.11 164.124L3137.79 31.0225Z" stroke="#878787" stroke-width="0.24" stroke-linecap="round" stroke-linejoin="round"/>
<path d="M3059.69 1645.5L3200.73 1469.96L3426.06 1354.47" stroke="#878787" stroke-width="0.24" stroke-linecap="round" stroke-linejoin="round"/>
<path d="M3219.42 1.2381L3232.81 16.4398L3341.64 1.03174" stroke="#878787" stroke-width="0.24" stroke-linecap="round" stroke-linejoin="round"/>
<path d="M3424.63 516.859L3409.4 519.886L3424.83 617.012" stroke="#878787" stroke-width="0.24" stroke-linecap="round" stroke-linejoin="round"/>
<path d="M2527.4 2.4762L2569.81 21.3236L2595.17 2.33862" stroke="#878787" stroke-width="0.24" stroke-linecap="round" stroke-linejoin="round"/>
<path d="M3093.47 76.0088L3069.2 89.4221L3080.76 105.656L3093.47 76.0088Z" stroke="#878787" stroke-width="0.24" stroke-linecap="round" stroke-linejoin="round"/>
<path d="M3081.57 1645.43L3212.49 1482.27L3426.12 1371.73" stroke="#878787" stroke-width="0.24" stroke-linecap="round" stroke-linejoin="round"/>
<path d="M3129.9 1645.36L3166.54 1559.93L3224.25 1494.59L3426.19 1399.25" stroke="#878787" stroke-width="0.24" stroke-linecap="round" stroke-linejoin="round"/>
<path d="M3182.11 1645.3L3209.7 1560.69L3258.85 1514.12L3338.37 1467.97L3426.26 1464.66" stroke="#878787" stroke-width="0.24" stroke-linecap="round" stroke-linejoin="round"/>
<path d="M3235.06 1645.23L3243.28 1559.18L3264.28 1543.77L3338.1 1514.95L3426.4 1528.5" stroke="#878787" stroke-width="0.24" stroke-linecap="round" stroke-linejoin="round"/>
<path d="M3292.9 1645.09L3335.31 1559.45L3426.46 1587.31" stroke="#878787" stroke-width="0.24" stroke-linecap="round" stroke-linejoin="round"/>
<path d="M1.90332 656.22L30.5875 669.014L82.1782 807.206L65.3891 988.044L75.1771 1061.71L127.379 1132.98L199.634 1193.58L329.732 1416.17L350.259 1499.4L354.678 1650.25" stroke="#878787" stroke-width="0.48" stroke-linecap="round" stroke-linejoin="round"/>
<path d="M98.6954 6.74097L92.9858 94.0306L64.7095 163.298L106.58 277.071L124.117 488.106L150.694 548.845L205.887 621.276L194.06 795.03L263.799 898.76L304.582 1089.44L335.985 1140.06L442.973 1206.72L485.32 1254.32L544.931 1353.51L596.794 1537.58L625.818 1570.73L699.363 1583.25L774.948 1561.58L736.68 1386.45L742.525 1299.85L717.376 918.983L595.094 529.034L671.359 508.949L732.941 526.902L771.278 564.665L847.746 707.603L900.628 736.975L1055.6 763.939L1101.96 804.592L1116.71 856.112L1090.68 988.663L1089.32 1075.54L1124.19 1283.55L1127.25 1401.93L1107.74 1476.43L1058.53 1562.34L1041.74 1649.08" stroke="#878787" stroke-width="0.48" stroke-linecap="round" stroke-linejoin="round"/>
<path d="M2269.72 1214.28L2223.63 1268.69L2172.79 1279.97L2102.85 1253.42L2089.12 1217.79L2115.42 1139.44L2143.83 1115.02L2173.81 1109.8L2207.93 1113.85L2238.45 1139.37L2269.72 1214.28Z" stroke="#878787" stroke-width="0.48" stroke-linecap="round" stroke-linejoin="round"/>
<path d="M2177.14 1647.08L2228.39 1595.15L2276.31 1598.32L2322.33 1646.81" stroke="#878787" stroke-width="0.48" stroke-linecap="round" stroke-linejoin="round"/>
<path d="M998.711 207.872L975.261 145.552L904.027 182.352L839.045 265.033L831.5 338.909L873.983 369.519L941.207 367.8L984.369 310.157L998.711 207.872Z" stroke="#878787" stroke-width="0.48" stroke-linecap="round" stroke-linejoin="round"/>
<path d="M1863.93 3.64575L1753.54 97.5389L1758.84 139.223L1809 196.316L1813.97 260.081L1795.68 280.166L1754.69 255.059L1701.74 159.309L1682.51 3.9209" stroke="#878787" stroke-width="0.48" stroke-linecap="round" stroke-linejoin="round"/>
<path d="M2314.72 2.82019L2243.89 75.3208L2218.06 163.436L2175.99 438.58L2193.66 514.383L2213.23 534.4L2241.44 538.94L2284.67 520.574L2349.04 442.226L2346.87 258.705L2377.39 187.511L2405.8 175.886L2536.51 191.088L2611.41 164.743L2677.89 89.2844L2715.61 2.13232" stroke="#878787" stroke-width="0.48" stroke-linecap="round" stroke-linejoin="round"/>
<path d="M2829.2 867.187L2753.41 1030.28L2573.89 1143.02L2503.34 1142.81L2481.86 1130.84L2419.32 1048.03L2422.25 962.937L2462.49 867.737L2518.97 772.262L2600.47 702.582L2661.44 693.777L2743.69 724.937L2790.59 778.04L2829.2 867.187Z" stroke="#878787" stroke-width="0.48" stroke-linecap="round" stroke-linejoin="round"/>
<path d="M2849.52 434.522L2825.8 426.749L2820.7 439.131L2849.52 434.522Z" stroke="#878787" stroke-width="0.48" stroke-linecap="round" stroke-linejoin="round"/>
<path d="M3290.18 1125.96L3180.27 1030.9L3113.73 1026.56L3040.66 1045.69L2922.52 1110.35L2906.07 1132.29L2899.07 1279.9L2929.79 1314.37L3004.77 1328.4L3177.21 1325.3L3222.41 1298.2L3281.55 1218.55L3290.18 1125.96Z" stroke="#878787" stroke-width="0.48" stroke-linecap="round" stroke-linejoin="round"/>
<path d="M2987.43 1.65088L2958.75 81.1677L2958.07 174.442L2984.85 243.365L3023.94 262.969L3082.25 256.985L3251.64 136.059L3342.11 112.947L3423.88 71.1249" stroke="#878787" stroke-width="0.48" stroke-linecap="round" stroke-linejoin="round"/>
<path d="M2981.86 1645.64L3167.08 1416.44L3255.99 1345.73L3425.99 1281.35" stroke="#878787" stroke-width="0.48" stroke-linecap="round" stroke-linejoin="round"/>
<path d="M3425.17 819.449L3382.42 819.862L3337.49 695.222L3293.85 660.829L3185.64 619.901L3159.47 586.196L3156.34 554.004L3177.69 507.298L3263.4 430.533L3341.98 282.367L3424.22 269.848" stroke="#878787" stroke-width="0.48" stroke-linecap="round" stroke-linejoin="round"/>
<path d="M944.878 1043.55L889.956 1033.31L853.591 1044.86L879.828 1062.33L944.878 1043.55Z" stroke="#878787" stroke-width="0.72" stroke-linecap="round" stroke-linejoin="round"/>
<path d="M1049.83 1302.95L1028.96 1252.05L952.83 1216.07L934.206 1225.01L886.83 1353.37L903.415 1433.5L936.857 1477.73L978.932 1462.67L1040.38 1396.15L1049.83 1302.95Z" stroke="#878787" stroke-width="0.72" stroke-linecap="round" stroke-linejoin="round"/>
<path d="M2.71875 1112.68L41.5987 1179.41L103.317 1236.84L261.828 1567.77L223.288 1650.52" stroke="#878787" stroke-width="0.72" stroke-linecap="round" stroke-linejoin="round"/>
<path d="M520.325 698.179L514.208 720.191L442.905 724.456L416.056 712.074L400.898 615.842L282.083 536.188L204.46 356.863L185.971 277.277L217.374 184.622L297.785 97.3325L335.849 75.1833L364.805 75.5961L383.362 97.1949L494.496 343.724L498.574 427.231L448.071 584.201L448.683 622.859L466.491 660.278L520.325 698.179Z" stroke="#878787" stroke-width="0.72" stroke-linecap="round" stroke-linejoin="round"/>
<path d="M464.112 957.847L431.35 948.011L423.329 971.398L435.428 984.674L464.112 957.847Z" stroke="#878787" stroke-width="0.72" stroke-linecap="round" stroke-linejoin="round"/>
<path d="M762.781 5.57178L780.657 74.014L777.395 150.298L654.909 343.381L659.803 378.393L844.279 501.864L961.055 624.028L1157.29 658.421L1242.59 702.444L1257.07 730.578L1255.98 776.733L1192.09 950.694L1192.64 1112.34L1210.99 1232.24L1204.94 1305.91L1265.57 1412.18L1330.14 1422.09L1398.18 1376.89L1419.25 1300.68L1401.17 1180.58L1413.27 1128.64L1547.31 923.317L1611.95 936.386L1674.69 995.198L1768.97 1164.96L1786.17 1313.61L1842.92 1340.5L1876.36 1340.71L1908.18 1270.21L1927.34 1124.38L1961.53 1069.01L2174.9 778.178L2266.86 702.1L2341.77 678.438L2361.96 698.042L2361.55 729.202L2287.93 865.124L2282.5 947.323L2310.37 1044.72L2409.67 1233.82L2405.87 1304.39L2382.48 1381.23L2396.15 1478.21L2468.88 1578.02L2534.4 1593.91L2657.16 1560.48L2824.84 1468.03L2896.56 1456L2920.48 1467.55L2931.76 1491.22L2905.87 1559.38L2846.32 1645.85" stroke="#878787" stroke-width="0.72" stroke-linecap="round" stroke-linejoin="round"/>
<path d="M1563.15 782.855L1542.69 825.915L1484.17 791.316L1448.28 761.05L1420.07 695.084L1411.17 524.15L1434.14 436.861L1463.23 405.426L1528.89 408.727L1552.75 454.883L1534.47 626.848L1561.11 706.64L1563.15 782.855Z" stroke="#878787" stroke-width="0.72" stroke-linecap="round" stroke-linejoin="round"/>
<path d="M1468.26 90.8665L1456.37 82.7498L1450.32 97.47L1468.26 90.8665Z" stroke="#878787" stroke-width="0.72" stroke-linecap="round" stroke-linejoin="round"/>
<path d="M2026.51 551.802L2020.47 609.239L1988.04 685.385L1937.74 715.032L1865.22 713.106L1845.3 689.031L1856.04 605.868L1966.77 430.257L1993.68 449.311L2026.51 551.802Z" stroke="#878787" stroke-width="0.72" stroke-linecap="round" stroke-linejoin="round"/>
<path d="M1919.46 1647.5L1965.68 1626.66L1988.18 1628.65V1647.36" stroke="#878787" stroke-width="0.72" stroke-linecap="round" stroke-linejoin="round"/>
<path d="M3408.79 1644.88L3426.6 1641.86" stroke="#878787" stroke-width="0.72" stroke-linecap="round" stroke-linejoin="round"/>
</svg>
