<svg width="30" height="30" viewBox="0 0 30 30" fill="none" xmlns="http://www.w3.org/2000/svg">
<path fill-rule="evenodd" clip-rule="evenodd" d="M25.6288 4.3563C22.8091 1.5484 19.0588 0.00140884 15.063 0C6.82925 0 0.128167 6.66331 0.125333 14.8537C0.123917 17.472 0.812167 20.0276 2.11933 22.2799L0 29.9781L7.91867 27.9125C10.1003 29.0964 12.5569 29.7196 15.0566 29.7203H15.063C23.2953 29.7203 29.9972 23.0562 30 14.8658C30.0014 10.8964 28.4493 7.16478 25.6288 4.35696V4.3563ZM15.063 27.2117H15.058C12.8305 27.211 10.6453 26.6155 8.73875 25.4908L8.28542 25.223L3.58617 26.4488L4.84033 21.8924L4.54517 21.4251C3.3025 19.4593 2.64575 17.1871 2.64717 14.8545C2.65008 8.04729 8.21942 2.50865 15.0681 2.50865C18.3842 2.51005 21.5012 3.79566 23.8454 6.12978C26.1897 8.46323 27.4796 11.5659 27.4782 14.8644C27.4753 21.6723 21.9059 27.211 15.063 27.211V27.2117ZM21.8729 17.9649C21.4998 17.7791 19.6648 16.8815 19.3224 16.7577C18.9801 16.6337 18.7316 16.5718 18.483 16.9435C18.2345 17.3154 17.519 18.1516 17.3013 18.3987C17.0835 18.6466 16.8658 18.6772 16.4926 18.4913C16.1195 18.3054 14.9169 17.9136 13.4909 16.6493C12.3815 15.665 11.6323 14.4499 11.4146 14.078C11.1968 13.7063 11.3917 13.5054 11.5778 13.3209C11.7454 13.1543 11.951 12.8872 12.1379 12.6706C12.3249 12.4541 12.3865 12.2988 12.5111 12.0516C12.6358 11.8038 12.5734 11.5873 12.4803 11.4013C12.3872 11.2154 11.6409 9.38842 11.3293 8.64555C11.0263 7.92191 10.7184 8.02019 10.4899 8.00809C10.2722 7.99732 10.0237 7.99525 9.77442 7.99525C9.52517 7.99525 9.12117 8.0879 8.77883 8.45967C8.4365 8.83144 7.47242 9.72961 7.47242 11.5559C7.47242 13.3822 8.80967 15.1479 8.99658 15.3958C9.1835 15.6437 11.6287 19.3923 15.3724 21.0007C16.2627 21.3831 16.9582 21.6118 17.5003 21.7827C18.3943 22.0655 19.2078 22.0256 19.851 21.9302C20.568 21.8233 22.0592 21.032 22.37 20.1651C22.6808 19.2983 22.6808 18.5547 22.5878 18.4001C22.4947 18.2456 22.2454 18.1522 21.8723 17.9664L21.8729 17.9649Z" fill="white"/>
</svg>
