<svg width="18" height="18" viewBox="0 0 18 18" fill="none" xmlns="http://www.w3.org/2000/svg">
<path d="M9 0C4.02955 0 0 4.02955 0 9C0 13.9705 4.02955 18 9 18C13.9705 18 18 13.9705 18 9C18 4.02955 13.9705 0 9 0ZM15.3409 9.86631H8.98797C8.46289 9.86631 8.03743 9.44086 8.03743 8.91578V2.56283C8.03743 2.03775 8.46289 1.6123 8.98797 1.6123C9.51305 1.6123 9.9385 2.03775 9.9385 2.56283V7.96524H15.3409C15.866 7.96524 16.2914 8.3907 16.2914 8.91578C16.2914 9.44086 15.866 9.86631 15.3409 9.86631Z" fill="white"/>
</svg>
