<svg width="21" height="16" viewBox="0 0 21 16" fill="none" xmlns="http://www.w3.org/2000/svg">
<path d="M0.646307 16V11.3977C0.646307 10.0909 0.901989 8.75568 1.41335 7.39204C1.92472 6.02841 2.59943 4.7429 3.4375 3.53551C4.27557 2.32812 5.18466 1.3196 6.16477 0.509943L10.1705 2.875C9.375 4.125 8.72159 5.43182 8.21023 6.79545C7.71307 8.15909 7.46449 9.67898 7.46449 11.3551V16H0.646307ZM11.4062 16V11.3977C11.4062 10.0909 11.6619 8.75568 12.1733 7.39204C12.6847 6.02841 13.3594 4.7429 14.1974 3.53551C15.0355 2.32812 15.9446 1.3196 16.9247 0.509943L20.9304 2.875C20.1349 4.125 19.4815 5.43182 18.9702 6.79545C18.473 8.15909 18.2244 9.67898 18.2244 11.3551V16H11.4062Z" fill="#111827"/>
</svg>
